<?xml version="1.0" standalone="no"?><!DOCTYPE svg PUBLIC "-//W3C//DTD SVG 1.1//EN" "http://www.w3.org/Graphics/SVG/1.1/DTD/svg11.dtd"><svg t="1552714495975" class="icon" style="" viewBox="0 0 1024 1024" version="1.1" xmlns="http://www.w3.org/2000/svg" p-id="3974" xmlns:xlink="http://www.w3.org/1999/xlink" width="200" height="200"><defs><style type="text/css"></style></defs><path d="M500.948039 175.177563c71.018791 0 142.037581-0.063608 213.056371 0.031804 78.015716 0.095413 129.029661 51.395596 129.029661 129.69755 0.031804 138.348293-1.622014 276.696587 0.731497 414.981271 1.081343 63.44939-46.529552 129.252291-128.807031 128.520794-95.889679-0.858714-191.811163-0.763301-287.700842-0.731497-53.462869 0.031804-107.052955 3.307637-160.388608-1.36758-57.056744-4.99326-101.010156-50.632295-106.671305-108.038886-0.731497-7.378576-1.113147-14.82076-1.113147-22.199335-0.063608-136.758083-0.190825-273.484362 0-410.242445 0.095413-62.749697 34.189521-110.296984 89.497034-125.785632 13.357766-3.752896 27.00177-4.929652 40.868404-4.929652 70.509923 0.127217 141.019847 0.063608 211.497966 0.063608z" fill="#123450" p-id="3975"></path><path d="M183.891915 734.136472c0.667888-0.795105 1.20856-2.130882 2.003665-2.321707 31.199925-7.633009 34.253129-29.959561 36.034165-58.01087 2.19449-34.507563-10.5908-60.459794-31.454359-84.758208-9.445849-11.004255-12.880703-22.962636-12.658074-37.719787 0.826909-55.116688 0.667888-110.233376 0.095413-165.350064-0.159021-15.647669 6.265428-22.580986 21.372426-22.708202 8.491723-0.063608 16.951641-0.127217 25.443364-0.477063 24.266609-0.98593 37.147312-13.103333 38.673914-37.274529 1.049539-16.379166 1.017735-32.82194 1.399385-49.264714 0.286238-12.658074 5.883778-19.845824 19.305152-19.81402 12.721682 0.031804 25.443364-0.063608 38.133243-0.477063 9.318632-0.286238 15.80669 3.657484 21.595055 10.877038 20.19567 25.220735 41.091033 49.868994 61.223095 75.153337 9.700283 12.181011 21.436034 17.61953 37.0519 17.396901 39.755257-0.508867 79.510513-0.445259 119.26577-0.031805 15.615865 0.159021 27.351617-5.533932 37.020095-17.683138 19.464174-24.457434 39.787061-48.215175 59.028605-72.83163 6.869708-8.777961 14.725347-12.976116 25.538777-12.848899 11.672143 0.159021 23.312483-0.063608 34.984626 0.063608 13.580396 0.127217 20.100258 6.615275 20.163866 20.672734 0.063608 16.951641 1.049539 33.903283 2.226294 50.791316 1.526602 21.754076 13.421375 33.394416 35.429885 34.952821 10.018325 0.699693 20.132062 0.572476 30.182191 0.985931 12.721682 0.540671 19.050719 6.583471 18.987111 20.036649-0.286238 59.346647-0.159021 118.725099-0.031805 178.10355 0.031804 7.219555-1.653819 13.484983-6.392645 19.018915-2.067273 2.385315-3.275833 5.59754-5.565736 7.728422-32.154052 29.991366-33.553437 68.569867-30.62745 108.45234 0.98593 13.421375 7.569401 22.899028 19.527783 28.591981 5.692953 2.703357 11.735752 4.643414 17.619529 6.933317 3.275833 1.462993 3.148616 4.229959 2.79877 7.092337-23.503308 42.681244-59.791906 66.979656-108.134298 69.492189-43.794391 2.258099-87.747803 0.540671-131.637606 0.477063-9.477653 0-18.128397-1.367581-21.754076-11.958381-9.414045-24.616455-16.379166-29.546107-42.04516-29.673324-8.968786-0.031804-17.937572 0-26.874553 0-35.843339 0.031804-39.755257 2.79877-50.950337 36.44762-1.049539 1.526602-2.448924 2.639749-4.134547 3.371246-10.877038 3.180421-22.00851 1.749231-33.012765 1.812839-37.43355 0.159021-74.867099 0.922322-112.268845-0.159021-42.172376-1.20856-75.503184-20.79995-101.26459-53.590086-4.866043-6.010995-10.336367-12.594465-6.297233-21.499643z" fill="#EA6299" p-id="3976"></path><path d="M695.239929 195.023387c-18.955306 22.549182-36.097773 42.554027-52.858589 62.876914-18.82809 22.899028-37.497158 45.925273-55.784576 69.237755-7.442184 9.477653-15.838494 13.898438-28.337547 13.675809-38.673914-0.699693-77.347827-0.38165-116.021741-0.159021-8.269093 0.031804-15.456844-0.858714-21.213405-7.951052-36.097773-44.335062-72.44998-88.511104-108.643166-132.750753-0.890518-1.081343-1.20856-2.639749-2.19449-4.929652H695.239929zM320.013914 238.436128c-15.552256 0-27.510638-0.318042-39.437214 0.063608-19.241544 0.636084-31.61338 12.435444-32.917353 31.486163-1.20856 17.905768-2.289903 35.843339-2.639749 53.780912-0.254434 13.898438-6.392645 19.973041-20.354691 20.163866-13.166941 0.190825-26.333882 1.781036-39.469019 3.116812-4.039134 0.413455-7.41038 1.20856-7.092338-4.579806 1.20856-23.662329-3.40305-47.674504 3.053204-70.986986C192.892506 229.308321 221.039227 204.214803 263.434233 194.991583c12.594465-2.735162 23.248874-0.858714 31.0091 11.926577 6.392645 10.495388 15.488648 19.305153 25.570581 31.517968zM682.868093 238.404323c12.562661-15.20241 22.930832-27.637854 33.203591-40.168711 5.406715-6.615275 12.817095-4.166351 19.241544-3.689288 41.917943 3.212225 83.613256 42.903873 88.193061 85.171662 2.099078 19.368761 0.890518 39.055564 1.43119 58.615151 0.190825 6.869708-2.19449 9.191415-9.350437 8.459918-14.184676-1.494798-28.464764-1.908252-42.649439-3.148616-11.290493-0.98593-14.82076-9.064199-15.20241-18.859894-0.667888-16.379166-0.318042-32.790136-1.367581-49.137497-1.653819-25.888623-13.771221-37.020095-39.309998-37.242725-10.113737-0.063608-20.132062 0-34.189521 0z" fill="#49B570" p-id="3977"></path><path d="M820.86654 738.080194c-0.477063-1.908252-0.98593-3.848309-1.462993-5.756561 11.544927-8.873373 9.954716-23.535112 15.42504-35.557102 10.145542 64.594341-38.451284 131.828431-102.409542 143.436966-12.117402 2.19449-24.043979 2.862378-36.161381 2.862379-132.337299 0.031804-264.642793 0.031804-396.980092 0-74.421841 0-133.832096-59.410256-133.8639-133.768488 0-7.346771 0-14.661739 1.144951-22.167531 2.067273 16.951641 8.237289 32.408485 14.725348 47.769916 7.346771 35.398081 23.948567 64.212691 57.979066 80.273815 19.654999 9.286828 40.932012 10.399975 62.145417 10.686213 33.871479 0.477063 67.774762-0.477063 101.646241 0.38165 17.269684 0.445259 30.182191-3.593875 35.429884-21.595055l0.82691 0.38165c5.724757-4.866043 11.79936-4.834239 18.128397-1.367581 0.763301 0.699693 1.685623 1.399385 2.035469 2.321707 7.155946 19.909433 7.155946 19.909433 28.337547 19.909433 10.495388 0 20.990776 0.031804 31.517967 0 20.79995-0.031804 20.79995-0.063608 21.436035-19.909433 0.477063-1.717427 1.335777-3.244029 2.512532-4.579805 7.346771-2.512532 14.121067-1.335777 20.481908 2.957791 5.629344 18.541852 19.050719 22.294748 36.82927 21.849489 37.43355-0.954126 74.930708 0.063608 112.396062-0.381651 36.22499-0.445259 66.979656-12.817095 89.147187-42.967481 9.891108-13.484983 15.266019-28.687393 18.732677-44.780321z" fill="#102A42" p-id="3978"></path><path d="M438.484579 804.6782c2.099078 13.262354-0.763301 24.711868-16.347361 24.616455-53.208436-0.286238-106.575892 3.625679-159.593503-2.226295-37.083703-4.070938-71.877504-37.083703-80.909898-73.43591-1.558406-6.233624-1.940057-12.467249-0.318042-18.732677 0.826909-0.38165 1.685623-0.636084 2.607945-0.763301 12.530857 35.779731 61.859179 70.287294 102.568562 70.63714 50.632295 0.445259 101.328198 0 151.992297-0.095412z" fill="#C85481" p-id="3979"></path><path d="M178.835047 712.954872v-105.367333c32.122247 24.012175 24.966301 58.074479 23.439699 90.06951-0.540671 11.354101-12.02199 13.166941-23.439699 15.297823z" fill="#48B470" p-id="3980"></path><path d="M824.842066 606.856042c0 32.249464 0.159021 61.827375-0.159021 91.405287-0.063608 4.707022 3.275833 12.880703-3.498463 13.453179-7.346771 0.636084-15.743082-2.19449-19.400565-10.718018-9.763891-22.803615 1.622014-73.086064 23.058049-94.140448z" fill="#49B570" p-id="3981"></path><path d="M820.86654 738.080194c4.99326 4.738827 1.781036 9.732087 0.445259 14.661738-12.594465 46.243315-52.190701 76.330093-102.282324 76.807156-43.349132 0.445259-86.698264 0.190825-130.047396 0.063609-20.768146-0.063608-24.012175-3.307637-26.492903-24.616455-2.130882-3.498463-2.321707-6.774296 0.98593-9.732087 2.735162 7.028729 7.060534 9.98652 15.361432 9.891108 45.480014-0.508867 91.023636 1.049539 136.440041-0.636084 40.454949-1.494798 71.718483-22.294748 95.985091-54.067149 3.148616-4.134547 6.392645-8.237289 9.60487-12.371836z" fill="#C85481" p-id="3982"></path><path d="M502.220207 680.864428c-29.100848 0-58.2335-0.190825-87.334348 0.127217-7.537597 0.063608-11.41771-1.113147-11.258689-10.145541 0.159021-8.459919 3.911917-9.159611 10.654409-9.127807 57.692829 0.159021 115.385657 0.190825 173.078486-0.031804 7.537597-0.031804 11.290493 1.113147 11.354101 10.145541 0.063608 10.272758-5.915582 9.096003-12.308228 9.064199-28.083113-0.063608-56.134422-0.031804-84.185731-0.031805z" fill="#123450" p-id="3983"></path><path d="M378.21561 492.074665c0.095413 19.973041-16.856229 37.338137-37.020095 37.910613-20.577321 0.60428-38.832935-17.047054-38.896543-37.687983-0.095413-20.895363 17.142467-37.592571 38.642109-37.401746 20.513712 0.190825 37.147312 16.79262 37.274529 37.179116z" fill="#143450" p-id="3984"></path><path d="M662.258968 528.744914c-21.467839 0.254434-36.988291-15.106998-36.956486-36.543032 0-21.086188 15.997515-37.115508 37.115507-37.21092 21.149797-0.095413 37.369941 15.615865 37.687984 36.479423 0.349846 22.262944-14.629934 36.988291-37.847005 37.274529zM563.443302 795.264155c-0.318042 3.244029-0.636084 6.488058-0.98593 9.732087-6.010995-0.38165-12.340032 1.176756-17.587726-3.244029-8.046464-13.135137-20.036649-16.442774-34.666584-14.979781-9.350436 0.922322-18.859894 0.477063-28.273938 0.127217-10.877038-0.413455-18.22381 3.625679-21.117993 14.502718-0.795105 1.526602-1.940057 2.671553-3.466658 3.434854-6.010995 0.095413-12.02199 0.159021-18.032984 0.254434 0.254434-28.910023 12.689878-41.377271 41.440879-41.472684 14.788955-0.063608 29.546107-0.159021 44.335063 0.031804 22.580986 0.190825 33.458024 9.286828 38.355871 31.61338z" fill="#133450" p-id="3985"></path><path d="M466.981147 272.466627c-0.127217-26.270274 16.506383-46.943007 36.384011-45.193775 20.831755 1.844644 36.702053 27.192596 32.599311 52.063484-3.721092 22.517377-16.061124 36.034165-33.139982 36.320402-21.40423 0.349846-35.684318-16.856229-35.84334-43.190111z" fill="#123450" p-id="3986"></path><path d="M544.042737 804.932633c2.703357 24.902693 2.703357 24.902693-23.153462 24.902693-16.379166 0-32.82194-0.890518-49.105693 0.286238-13.198745 0.954126-18.446439-2.258099-14.089263-15.902103 0.890518-2.79877-0.190825-6.265428-0.38165-9.414044l1.20856 0.190825c3.053204-3.307637 7.092338-4.484393 11.322297-4.643414 20.895363-0.795105 41.82253-0.795105 62.717893 0 4.325372 0.159021 8.205485 1.749231 11.481318 4.579805z" fill="#35985D" p-id="3987"></path><path d="M544.042737 804.932633c-28.496568 0.031804-56.993136 0.031804-85.489704 0.063609-0.572476-19.050719 2.353511-22.23114 20.831754-22.326552 15.170606-0.063608 30.373016 0.540671 45.543622-0.190826 14.152871-0.667888 20.4183 5.470323 19.941237 19.241545-0.254434 1.081343-0.540671 2.130882-0.826909 3.212224z" fill="#49B570" p-id="3988"></path><path d="M359.61015 491.533994c-0.667888 12.276423-7.155946 19.018915-18.573656 20.227474-10.718017 1.144951-20.004845-8.61894-19.718607-19.909432 0.318042-12.244619 7.219555-18.446439 19.018915-18.478243 11.894773-0.031804 18.128397 6.8061 19.273348 18.160201z" fill="#48B470" p-id="3989"></path><path d="M665.821039 473.437401c9.032394-0.190825 15.266019 6.710687 16.220145 18.22381 0.922322 11.067863-8.905178 20.79995-19.941237 19.973041-11.703948-0.858714-18.987111-8.110072-18.796285-19.495978 0.190825-11.19508 6.678883-18.637264 22.517377-18.700873z" fill="#47B370" p-id="3990"></path><path d="M518.758394 272.593844c-1.717427 11.41771-3.180421 23.153462-16.888033 25.665994-8.650744 1.558406-17.651334-12.721682-17.61953-26.302078 0.031804-13.866634 8.905178-27.955897 17.61953-26.206665 14.407305 2.894183 15.42504 15.297823 16.888033 26.842749z" fill="#F1D765" p-id="3991"></path></svg>