<?xml version="1.0" standalone="no"?><!DOCTYPE svg PUBLIC "-//W3C//DTD SVG 1.1//EN" "http://www.w3.org/Graphics/SVG/1.1/DTD/svg11.dtd"><svg t="1552714569566" class="icon" style="" viewBox="0 0 1024 1024" version="1.1" xmlns="http://www.w3.org/2000/svg" p-id="4738" xmlns:xlink="http://www.w3.org/1999/xlink" width="200" height="200"><defs><style type="text/css"></style></defs><path d="M521.366338 858.649936c-74.167407 0-148.334814 0.318042-222.534024-0.095412-66.24816-0.38165-119.456595-53.653694-120.156288-120.188092-0.508867-46.084294-0.222629-92.200391 0-138.284685 0.063608-9.22322-1.971861-17.428705-5.59754-25.920428-43.794391-102.409541-43.857999-204.278411 4.420784-305.415784a140.383762 140.383762 0 0 0 6.456254-16.092928c18.255614-55.307513 62.177221-87.366152 120.188092-87.397956 144.645526-0.063608 289.291052-0.063608 433.936578 0 58.456129 0.031804 102.727583 33.267199 121.046805 88.574712 9.414045 28.464764 24.711868 54.766842 31.83601 84.24934 19.305153 79.955772 12.594465 157.526229-20.386496 232.743175-5.025064 11.41771-7.633009 22.676398-7.569401 35.175451 0.190825 47.133832 1.113147 94.363077-0.858713 141.433301-2.576141 61.445725-54.798646 110.615026-116.657825 111.123894-74.708078 0.572476-149.416157 0.095413-224.124236 0.095412z" fill="#123450" p-id="4739"></path><path d="M180.838712 536.377923c-28.337547-73.245085-27.82868-146.712799-2.512533-223.488151 11.672143 20.704538 24.870889 17.333292 41.917943 9.700283 31.199925-13.99385 64.403516-9.127807 96.812001-3.085008 24.42563 4.548001 48.119763 12.02199 71.591267 20.227475 21.563251 7.537597 28.305743 2.480728 28.273938-20.068454-0.031804-24.043979-0.031804-24.075783 23.503308-24.075783 51.395596-0.031804 102.822996-0.031804 154.218592 0 20.577321 0 21.913097 1.335777 22.103922 21.1816 0.190825 21.086188 11.926577 29.832345 32.090444 22.994441 43.794391-14.82076 87.938628-27.256204 134.913439-25.220735 14.502718 0.636084 28.273939 3.275833 41.409075 9.445849 20.100258 9.445849 25.157126 8.046464 38.769326-11.767556 26.715533 75.662205 26.461099 149.89322-1.781035 224.156039 0-45.352797 0.031804-90.737398 0-136.090194-0.031804-28.019505-6.424449-37.43355-32.376681-47.992546-76.45731-31.040904-160.738454-12.181011-216.173184 49.105693-26.270274 29.069044-51.586421 58.996801-77.220611 88.63832-12.912507 14.916172-23.853154 15.488648-36.702053 0.731497-28.878218-33.139982-56.64329-67.265894-86.348417-99.642575-50.314253-54.83045-146.013107-69.619406-211.307141-34.443955-14.693543 7.919247-21.467839 19.018915-21.340621 35.62071 0.349846 48.056154 0.159021 96.080504 0.159021 144.07305z" fill="#F5DA65" p-id="4740"></path><path d="M648.678573 393.704258c33.839675-25.888623 71.400441-40.391341 114.685964-37.179116 6.678883 7.060534 4.643414 15.933907 4.643414 24.171196 0.127217 134.309159 0.095413 268.650123 0.095413 402.959282-0.540671 8.205485 1.272168 16.760816-3.530267 24.330217-5.661149 6.551666-13.675808 8.141877-21.467839 8.841569-31.517968 2.894183-63.099543 3.975526-94.617511-0.413454-12.02199-10.527192-7.760226-24.80728-6.138211-36.861074 2.766966-20.481908 1.685623-40.8366 2.226294-61.223096 0.763301-47.229245-1.367581-94.522098 1.081343-141.719539 2.353511-6.774296 7.028729-6.965121 12.62627-4.261763 2.862378 1.367581 5.406715 3.371246 8.269093 4.738826 15.266019 7.251359 31.708793 3.848309 41.663509-8.555331 8.905178-11.067863 9.096003-29.546107 0.413455-39.850669-10.686213-12.689878-28.051309-15.584061-43.349132-7.982856-5.502128 2.735162-9.541262 11.385906-17.810355 5.438519-3.498463-5.851974-2.79877-12.340032-2.79877-18.637264-0.127217-30.754667 0-61.477529-0.095413-92.232196 0-7.473988 0.477063-14.788955 4.102743-21.563251zM280.385874 356.493338c43.953412-2.671553 80.750877 14.470913 114.081685 41.186446 2.544336 4.675218 4.357176 9.732087 4.452589 14.979781 0.763301 35.270864 0.826909 70.573532-0.031804 105.876199-0.063608 2.639749-1.113147 5.120477-2.385316 7.442184-8.61894 7.919247-13.039724-1.876448-18.669068-4.929652-15.20241-8.141877-29.895953-6.329037-41.663509 5.979191-11.290493 11.831164-12.880703 25.157126-4.675219 38.928347 9.414045 15.80669 31.358946 19.845824 48.819456 9.318633 4.802435-2.894183 8.682548-10.495388 16.092928-4.325372 2.830574 4.802435 3.085008 10.113737 2.894182 15.425039-2.41712 68.156412 5.247694 136.185607 2.925987 204.34202-0.254434 7.823835 1.367581 15.965711-3.530267 23.121657-1.908252 1.908252-4.166351 3.562071-6.837904 3.721092-33.171786 1.781036-66.375377 3.7847-99.45175-1.685623-5.247694-0.858714-10.20915-2.79877-13.548591-7.473988-5.851974-12.912507-2.130882-26.62012-3.307638-39.946082 0.063608-129.252291-0.031804-258.472777 0.127217-387.725068 0.095413-8.237289-1.940057-17.142467 4.707022-24.234804z" fill="#936BAC" p-id="4741"></path><path d="M525.341864 518.88561c12.562661-3.053204 20.545517-12.181011 28.496568-21.436034 28.146722-32.662919 54.957667-66.566202 85.83955-96.812001 10.177346 3.498463 5.979191 12.308227 6.010995 18.669068 0.508867 99.960617 0.222629 199.953039 0.190825 299.913657 0 16.41097 0.286238 32.82194-0.222629 49.201106-3.371246 15.170606 0.38165 30.691058-2.289903 45.893468-2.79877 2.735162-6.360841 3.975526-10.081933 4.00733-35.906948 0.318042-71.813896 2.385315-107.689039-1.113147-1.971861-0.731497-3.657484-1.876448-5.088673-3.434854-4.325372-7.601205-2.544336-15.997515-3.116812-24.075784 4.579806-84.312948 2.79877-168.721309 3.244029-253.097866 0.063608-6.20182-0.60428-12.785291 4.707022-17.714943z" fill="#936BAC" p-id="4742"></path><path d="M403.277324 407.602696c28.401155 28.878218 53.272044 60.841445 79.351492 91.691524 9.60487 11.354101 20.036649 19.941237 35.684319 19.81402 4.834239 4.707022 3.466658 10.81343 3.498462 16.474578 0.095413 63.83104 0.60428 127.66208-0.254433 191.493121-0.286238 20.513712-1.20856 41.059229-1.303973 61.572941-0.159021 8.01466 0.318042 16.061124-0.286238 24.075784-0.954126 1.876448-2.385315 3.244029-4.325371 4.102742-34.952822 4.166351-70.001056 1.81284-105.017487 1.367581-3.689288-0.031804-7.18775-1.431189-9.859303-4.293568-1.335777-2.41712-1.272168-5.056869-1.272168-7.696617-0.095413-49.137497-1.335777-98.274995-1.176756-147.348884 0.286238-80.305619 1.335777-160.611237 1.144951-240.916855-0.031804-3.721092-2.544336-8.777961 3.816505-10.336367zM197.981178 737.666739c0-114.717769 0.031804-229.467342 0-344.18511 0-8.555331 2.41712-16.02932 10.463584-19.845824 20.577321-9.795695 41.82253-17.61953 65.135013-17.142467 5.374911 6.456254 3.275833 14.184676 3.307637 21.372426 0.127217 112.173432 0.095413 224.31506 0.095412 336.456688 0.667888 27.351617-1.272168 54.798646 1.113148 82.150263 0.890518 10.304563-3.943721 13.38957-15.393236 8.364506-30.595646-13.516787-54.098953-34.253129-64.721558-67.170482zM770.170637 356.493338c22.040314 0.540671 42.363202 7.378576 61.986396 16.760816 6.519862 3.116812 10.972451 7.760226 10.972451 15.870299-0.159021 117.230301-0.190825 234.492406-0.222629 351.722707-8.777961 31.0091-32.122247 48.533217-58.933193 62.081809-14.82076 7.505792-18.60546 4.357176-18.732677-11.64034-0.031804-3.689288 0-7.378576 0-11.099667 3.275833-135.199677 0.731497-270.36755 1.622015-405.535423 0.031804-6.170016-1.526602-12.817095 3.307637-18.160201zM280.163245 187.549399c4.039134-2.989595 8.714352-3.307637 13.516787-3.307637 34.666584 0.159021 69.333168 0.254434 103.999752 0.38165 1.81284 1.971861 3.721092 4.166351 3.721092 6.837904 0 35.843339 4.961456 71.813896-3.434854 107.402802v24.775476c-39.278194-13.866634-77.952107-23.59872-117.707364-28.21033-5.21589-5.533932-4.38898-12.530857-4.484393-19.20974-0.222629-18.732677 0.190825-37.465354-0.286238-56.198031 0.349846-10.972451-2.735162-22.485573 4.675218-32.472094zM649.092027 184.814237c33.648849-0.190825 67.297699-0.349846 100.946548-0.540671 4.866043-0.031804 9.382241 0.922322 13.548592 3.530267 4.548001 4.929652 4.770631 10.972451 4.548001 17.174271-0.222629 23.662329 0.063608 47.324658-0.127217 71.01879-0.063608 6.774296 0.826909 13.834829-4.516197 19.400565-36.765661 3.657484-72.672609 11.513122-107.911669 22.580986-11.226884 2.703357-10.177346-6.138212-10.558996-12.18101-0.922322-14.979781-0.254434-30.02317-0.413455-45.034755 0.413455-18.891698-0.508867-37.783396-0.413454-56.675094 0.031804-6.742492-0.477063-13.803025 4.897847-19.273349z" fill="#936BAC" p-id="4743"></path><path d="M649.092027 184.814237c-0.031804 25.316147-0.031804 50.600491-0.063608 75.916639-10.081933-7.569401-1.653819-18.128397-4.293568-24.807281 0-4.198155-3.434854-2.321707-1.335777-2.480728 0.413455-0.031804 0.636084 0.159021 0.636085 0.60428 0.254434 23.566916 2.830574 47.070224 1.844643 70.668945-0.222629 5.724757 0.890518 11.672143-2.79877 16.79262-12.02199 6.424449-9.22322-3.498463-8.905177-8.714352 0.98593-15.965711-3.752896-28.051309-20.036649-33.458024-26.365686-2.830574-52.858589-1.431189-79.224276-0.922322-13.771221 0.286238-17.460509-5.056869-17.61953-17.460509-0.254434-20.609125 1.81284-41.281859-1.462993-61.827375-0.826909-5.056869-1.20856-10.050129 2.830574-14.152872 43.508153-0.063608 86.984502-0.095413 130.429046-0.159021z" fill="#936BAC" p-id="4744"></path><path d="M518.694785 184.941454c0.031804 4.102742 0.063608 8.205485 0.063609 12.308228 3.275833 24.139392 0.508867 48.374196 1.494797 72.545392 0.38165 9.191415-5.915582 8.237289-11.735751 8.237289-24.298413 0-48.565022-0.063608-72.863435 0.063609-5.21589 0.031804-10.558996-0.98593-15.647669 1.144951-6.551666 1.303972-11.672143 4.929652-16.156536 9.668478-2.512532 0.318042-4.261764-0.858714-4.198155-3.307637 0.731497-33.648849-2.385315-67.361307 1.526601-100.946548l117.516539 0.286238zM280.163245 187.549399c-0.031804 10.654409-0.063608 21.308818-0.063608 31.963226-2.321707 19.20974-2.448924 38.514893-3.148617 57.788242-0.222629 6.170016 1.462993 12.721682-3.212224 18.128397-23.439699 0.127217-46.43414 2.607945-67.711154 13.516787-4.897848 2.512532-7.601205 2.512532-8.046464-4.134547-3.657484-54.385191 20.386496-98.911079 74.358233-116.785042 2.385315-0.795105 5.21589-0.349846 7.823834-0.477063zM763.682579 203.610523c-0.031804-5.279498-0.063608-10.558996-0.063608-15.80669 39.40541 5.438519 77.252415 45.511818 79.383296 84.694599 0.699693 12.499053 0.095413 25.061714 0.095413 39.78706-24.043979-12.371836-48.119763-16.601795-72.990651-16.951641-5.374911-10.145542-4.198155-21.308818-4.83424-32.154052-1.113147-19.845824 1.971861-39.818865-1.59021-59.569276z" fill="#936BAC" p-id="4745"></path><path d="M522.034227 813.869615c40.200516 0 80.401031 0.031804 120.633351 0.031804 6.042799 8.39631 6.010995 16.760816 0 25.157127-40.23232 0.031804-80.46464 0.031804-120.69696 0.063608-6.138212-8.428114-5.947386-16.856229 0.063609-25.252539zM280.290462 807.540578c16.919837 6.965121 34.698388 6.647079 52.508743 6.488058 21.531447-0.190825 43.062894-0.127217 64.594341-0.190825 0.667888 0.636084 1.303972 1.272168 1.971861 1.940057 3.752896 8.110072 4.134547 15.997515-1.653819 23.471503-35.270864 0.095413-70.573532 0.222629-105.844395 0.254434-4.134547 0-8.523527 0.636084-11.958382-2.639749-5.565736-8.777961-5.025064-17.937572-1.622014-27.256204 0.636084-0.731497 1.303972-1.399385 2.003665-2.067274z" fill="#805A98" p-id="4746"></path><path d="M649.060223 814.028636c33.521632-1.59021 67.265894 3.339442 100.628506-3.244029 4.61161-0.922322 9.127807-2.226294 13.707612-3.339441 0.667888 0.667888 1.335777 1.335777 2.035469 2.003665 3.40305 9.255024 4.134547 18.382831-1.685622 27.065378-6.583471 4.929652-14.248284 2.925987-21.404231 2.957791-31.072709 0.127217-62.113613-0.190825-93.186321-0.318042-4.738827-8.364506-4.738827-16.729012-0.095413-25.125322zM401.496288 813.806007l117.134889 0.095412c2.576141 8.39631 2.639749 16.79262-0.031804 25.188931l-117.452931 0.095413c-3.371246-7.633009-1.113147-15.584061-1.399385-23.407895 0.572476-0.636084 1.144951-1.303972 1.749231-1.971861z" fill="#805A98" p-id="4747"></path><path d="M403.277324 407.602696c0.254434 64.721558 2.957791 129.570333 0.063608 194.196478-3.148616 70.732553-1.144951 141.369693-1.876448 212.038637l-0.60428 0.222629c-0.954126 1.367581-1.940057 1.431189-2.894182 0l-0.60428-0.222629c2.989595-78.715408-4.420785-157.3036-2.671553-236.019008 0.063608-3.180421-0.031804-6.392645-2.957792-8.587135 1.176756-13.834829 0.318042-27.637854-0.349846-41.44088 4.134547-3.0214 3.148616-7.505792 3.148617-11.576731 0-39.500823-0.063608-79.001646-0.127217-118.534273 3.0214 3.307637 5.947386 6.615275 8.873373 9.922912z" fill="#76588F" p-id="4748"></path><path d="M197.981178 737.666739c16.251949 27.160791 35.938752 50.759512 66.057335 63.544802 3.307637 1.399385 6.742492 4.420785 10.336367 1.908253 3.943721-2.766966 0.60428-6.615275 0.540671-10.050129-0.540671-24.80728-0.699693-49.646365-0.98593-74.485449 7.505792 1.049539 4.134547 6.996925 4.484393 10.81343 1.176756 13.294158-1.653819 26.747337 1.653818 39.946082 0.063608 12.721682 0.127217 25.475168 0.22263 38.19685l-0.190825 0.190826c-6.519862 8.809765-1.303972 18.987111-3.212225 28.305742-34.952822-5.502128-69.04693-38.769326-75.916638-75.121533-1.431189-7.601205-4.802435-15.170606-2.989596-23.248874z" fill="#805A98" p-id="4749"></path><path d="M770.170637 356.493338c-0.127217 119.774637-0.095413 239.517471-0.508867 359.292108-0.063608 23.21707-1.876448 46.402336-2.862379 69.619405-1.081343 1.431189-2.099078 1.399385-3.085008-0.095412-0.127217-142.928099-0.222629-285.856198-0.349846-428.784297 2.258099 0 4.548001-0.031804 6.8061-0.031804z" fill="#74578C" p-id="4750"></path><path d="M280.067832 769.343728c-6.265428-10.018325-1.653819-21.086188-3.085008-31.549772-0.890518-6.424449 2.385315-13.516787-3.053203-19.20974-0.095413-120.696959-0.222629-241.393919-0.318042-362.090878 2.258099 0 4.548001 0 6.8061 0.031804-0.127217 137.584992-0.254434 275.201789-0.349847 412.818586z" fill="#73568B" p-id="4751"></path><path d="M763.714383 785.309439c1.017735 0.063608 2.067273 0.095413 3.085008 0.095412 0.159021 21.181601 1.272168 22.072119 20.736342 11.767556 24.266609-12.880703 41.663509-32.885548 55.371122-56.325247 1.081343 44.271454-31.517968 85.044445-76.043855 95.126378-4.325372-9.032394 1.017735-19.177936-3.212225-28.21033l-0.254434-0.286238c0.095413-7.41038 0.222629-14.788955 0.318042-22.167531z" fill="#805A98" p-id="4752"></path><path d="M643.017424 769.280119c-0.095413-116.84865-0.159021-233.729105-0.413455-350.577755 0-6.042799 2.512532-12.785291-2.925987-18.064789 2.989595-2.321707 6.010995-4.643414 9.000591-6.965121 0.159021 39.02376 0.222629 78.04752 0.540671 117.039476 0.031804 5.59754-1.971861 11.672143 2.385315 16.729012-1.59021 14.852564 1.526602 29.959561-2.448923 44.653104l-0.286238 146.585583c-2.957791 13.580396-0.477063 27.351617-1.462994 40.99562-0.286238 3.530267 2.448924 8.905178-4.38898 9.60487z" fill="#73568B" p-id="4753"></path><path d="M518.758394 791.702084c-0.159021-90.864615-0.286238-181.697425-0.445259-272.56204 2.353511-0.095413 4.675218-0.159021 7.028729-0.254434-1.081343 90.960027 1.462993 181.951859-3.466658 272.848278-1.049539 1.431189-2.099078 1.431189-3.116812-0.031804z" fill="#75578D" p-id="4754"></path><path d="M420.03814 279.240923c19.559586-5.915582 39.62804-2.19449 59.410256-2.544336 39.02376-0.699693 39.055564-0.190825 39.246389-39.85067 0.063608-13.198745 0.063608-26.365686 0.063609-39.564431 6.265428 19.527782 3.275833 39.723452 2.735161 59.44206-0.445259 16.220145 4.229959 20.481908 20.354692 20.322887 24.043979-0.254434 48.437805-4.166351 72.322763 2.321707-64.721558-0.063608-129.411312-0.095413-194.13287-0.127217z" fill="#73568B" p-id="4755"></path><path d="M643.112837 321.508712v-95.730658c5.883778 13.325962-1.113147 25.188931 5.915582 34.952822 0 15.106998-0.063608 30.213995 0.031804 45.320992 0.031804 5.025064-1.176756 10.940647 6.488058 11.894773-3.307637 4.070938-8.141877 2.830574-12.435444 3.562071z" fill="#72568B" p-id="4756"></path><path d="M643.017424 769.280119c5.851974-9.827499 1.494798-20.609125 2.925987-30.850079 0.890518-6.583471-2.448924-13.803025 2.894183-19.750411 1.685623 26.39749-1.653819 52.604156-2.798771 78.906233-0.254434 5.533932-2.162686 11.767556 3.053204 16.442774 0.031804 8.364506 0.063608 16.729012 0.063609 25.125322l-6.488058-0.095412v-25.157127c0.127217-14.884368 0.222629-29.736932 0.349846-44.6213z" fill="#76568E" p-id="4757"></path><path d="M401.210051 184.655216c-0.063608 30.881883-0.127217 61.731963-0.095413 92.613846 0 4.039134-1.144951 8.491723 2.79877 11.672144-1.971861 3.339442-3.943721 6.647079-5.947386 9.98652l-0.286238-114.240705c1.176756-0.031804 2.353511-0.031804 3.530267-0.031805zM273.738796 295.429264c0.349846-25.443364 0.445259-50.918533 6.360841-75.916639 0.031804 25.316147 0.095413 50.632295 0.127216 75.948443-2.162686 0-4.325372-0.031804-6.488057-0.031804zM763.682579 203.610523c5.629344 6.392645 2.703357 14.089263 2.862379 21.117992 0.508867 23.566916 0 47.165637 3.530266 70.573532-2.19449 0.031804-4.38898 0.031804-6.615274 0.063608 0.095413-30.595646 0.159021-61.159487 0.222629-91.755132z" fill="#73568B" p-id="4758"></path><path d="M276.887412 836.037146c-2.480728-9.827499-8.777961-20.100258 3.212225-28.305742l-0.190826 29.100847c-1.081343 0-2.099078-0.286238-3.021399-0.795105z" fill="#75558D" p-id="4759"></path><path d="M763.650775 807.731404c6.456254 8.809765 1.59021 18.891698 3.212225 28.21033-1.049539 0.190825-2.099078 0.349846-3.116812 0.540671l-0.095413-28.751001z" fill="#705287" p-id="4760"></path><path d="M397.997826 814.028636c0.954126-0.095413 1.940057-0.095413 2.894183 0 0.095413 8.39631 0.159021 16.79262 0.254433 25.188931h-3.434854l0.286238-25.188931z" fill="#674D7C" p-id="4761"></path><path d="M518.599373 839.122154c0-8.39631 0.031804-16.79262 0.031804-25.18893l0.063608 0.063608c1.081343-1.399385 2.130882-1.462993 3.244029-0.031804l0.127217-0.063609c-0.031804 8.428114-0.031804 16.824425-0.063608 25.252539-1.144951-0.031804-2.258099-0.031804-3.40305-0.031804z" fill="#6F5287" p-id="4762"></path><path d="M649.123831 572.12585c-2.671553-15.075193-7.887443-30.309408 2.448924-44.653104 18.22381-19.464174 40.932012-21.213405 57.820046-4.516197 14.057459 13.898438 13.707613 38.387676-0.763301 52.572351-12.467249 12.244619-33.458024 14.025655-47.833525 4.070938-3.7847-2.639749-6.360841-7.219555-11.672144-7.473988z" fill="#133450" p-id="4763"></path><path d="M391.44616 527.790788c7.314967 13.739417 8.936982 27.542442 0.349846 41.44088-16.061124 17.905768-35.207255 22.040314-51.968072 11.258688-15.584061-10.018325-21.62686-29.037239-14.661738-45.893468 11.354101-27.415225 43.476349-30.722862 66.279964-6.8061z" fill="#143450" p-id="4764"></path><path d="M521.938814 813.933224c-1.081343 0-2.162686 0.031804-3.244029 0.031804 0.031804-7.41038 0.031804-14.852564 0.063609-22.262944 1.049539 0.031804 2.067273 0.031804 3.116812 0.031804 0.031804 7.41038 0.031804 14.788955 0.063608 22.199336z" fill="#7D5D97" p-id="4765"></path><path d="M682.804485 568.500171c-11.767556-0.763301-19.336957-7.219555-19.718607-18.637265-0.38165-11.19508 5.788365-18.923502 18.096592-19.59139 11.322297-0.60428 21.531447 8.141877 20.768147 18.764481-0.795105 11.41771-7.378576 18.192005-19.146132 19.464174z" fill="#F4C18A" p-id="4766"></path><path d="M378.756282 554.347299c-0.254434 6.869708-7.219555 13.103333-18.60546 14.057459-10.781626 0.890518-20.227475-9.255024-19.464174-20.291083 0.826909-11.990185 7.951051-18.032984 19.654999-18.255614 11.067863-0.190825 18.478243 7.919247 18.414635 24.489238z" fill="#F6C28B" p-id="4767"></path></svg>