<?xml version="1.0" standalone="no"?><!DOCTYPE svg PUBLIC "-//W3C//DTD SVG 1.1//EN" "http://www.w3.org/Graphics/SVG/1.1/DTD/svg11.dtd"><svg t="1552714564246" class="icon" style="" viewBox="0 0 1024 1024" version="1.1" xmlns="http://www.w3.org/2000/svg" p-id="4414" xmlns:xlink="http://www.w3.org/1999/xlink" width="200" height="200"><defs><style type="text/css"></style></defs><path d="M868.12759 266.392024c10.050129-31.931422 20.132062-63.862844 30.18219-95.794266 9.191415 42.872069 20.291083 84.885424 23.312483 128.202751 2.385315 34.253129-6.488058 66.152747-24.680063 95.189987-3.911917 6.233624-3.689288 9.827499 0.254433 16.347362 19.114327 31.740597 19.718607 65.135013 5.629345 98.942882-4.134547 9.922912-9.922912 20.450104-19.845825 23.948567-14.947977 5.279498-14.025655 15.743082-13.99385 27.510638 0.127217 55.657359 0.031804 111.314719-0.095413 166.972078-0.159021 78.301954-52.222505 130.556263-130.142808 130.556263-145.758673 0.063608-291.549151 0.063608-437.307824 0-74.739883-0.031804-127.725689-53.049415-127.884709-127.852906-0.127217-58.83778-0.159021-117.67556 0.031804-176.513339 0.031804-8.39631-1.367581-13.198745-10.177346-18.22381-28.337547-16.188341-33.171786-44.84393-33.267199-74.231015-0.063608-18.732677 4.516197-36.82927 15.80669-52.413331 3.053204-4.198155 4.579806-7.283163 1.176756-12.371836-29.228065-43.921608-31.486163-91.882349-21.149797-141.910364 5.851974-28.401155 10.654409-57.02494 16.601796-89.115383 11.067863 35.398081 21.054384 67.361307 31.99503 102.282324 8.110072-23.916762 16.665404-43.826195 33.362612-60.205361 22.199335-21.785881 48.469609-32.567506 78.365562-32.662919 156.381278-0.572476 312.730751-0.60428 469.112029-0.095412 51.65003 0.190825 92.613846 35.366276 112.714104 91.43709z" fill="#123450" p-id="4415"></path><path d="M202.274746 754.045905c13.866634-6.710687 26.588316-15.266019 38.801131-24.489238 14.025655-10.5908 19.177936-26.079448 21.78588-42.681244 12.976116-39.691648 50.632295-67.583936 92.200392-67.647545 14.407305-0.031804 28.560176-1.240364 42.490418-4.897847 13.675808-3.593875 25.220735-10.399975 33.648849-22.549182-20.036649 20.736342-45.289188 25.888623-71.686679 22.23114-35.429885-4.897848-58.678759 11.926577-78.365562 37.910612-4.325372 5.692953-6.965121 13.039724-15.138801 16.888034-2.894183-8.555331-2.353511-16.124732-0.763301-23.757742 0.890518-15.297823 2.003665-30.595646 2.639749-45.925272 0.60428-14.757151-5.406715-27.701463-11.640339-40.645775-25.188931-52.508743-24.075783-52.699568 22.326552-87.143523 45.543622-33.776066 67.742957-35.811535 114.622356 3.689288 29.927757 25.188931 61.191291 48.819455 91.914153 73.149673 0.349846 0.254434 0.954126 0.190825 3.148617 0.604279 0-4.484393 1.081343-9.22322-0.190826-13.166941-4.929652-15.393235 1.494798-18.891698 15.711278-17.587725 12.085598 1.113147 24.42563 1.081343 36.479423 0 12.817095-1.176756 17.206075 3.434854 14.661739 15.774886-0.954126 4.61161-1.20856 9.318632-2.067273 16.220145 16.538187-8.968786 28.591981-21.245209 41.949747-31.581576 24.298413-18.764481 47.960742-38.324067 72.163742-57.183962 26.969966-21.02258 51.872659-21.149797 79.923968-1.208559 13.357766 9.509457 27.033575 18.573656 40.168711 28.401155 16.79262 12.562661 19.877628 25.475168 11.258689 44.271454-5.056869 11.036059-9.98652 22.135727-15.584061 32.917352-7.060534 13.6122-9.22322 27.860484-7.919247 43.03109 1.494798 17.3969 2.258099 34.825605 3.371246 52.25431 1.622014 5.406715 0.795105 9.064199-5.533932 5.311302-5.056869-2.989595-7.601205-8.682548-10.877038-13.453179-19.050719-27.82868-43.794391-42.776656-79.097059-38.769326-26.365686 2.989595-51.968072-0.445259-71.209616-22.83542 16.474578 25.443364 42.554027 28.146722 68.347238 27.60605 39.278194-0.858714 67.488524 16.633599 89.751467 47.070224 5.438519 7.442184 8.523527 15.615865 10.940647 24.266609 3.752896 36.861074 33.394416 49.296518 60.523403 64.085474 0.890518 9.636674-5.979191 15.488648-11.449514 21.467839-24.870889 27.288008-56.229835 42.076964-92.772867 45.480013-15.170606 1.399385-30.532037 0.60428-45.766252 0.190825-5.21589-0.127217-10.654409-0.349846-14.089263-5.470323-4.961456-22.962636-0.922322-46.243315-2.41712-69.269559-0.795105-8.587135-7.728422-7.124142-13.135136-7.728422-5.756561-0.636084-11.576731-0.063608-17.365096 0-19.018915 0.445259-38.165046-1.272168-56.834115 4.102742-4.579806 1.303972-9.445849 1.622014-13.644005-1.749231-4.420785-28.401155-3.212225-56.738702-0.98593-85.044445-2.862378 28.051309-1.81284 56.261639-0.540671 84.471969-6.519862 10.463584-17.142467 7.41038-26.62012 8.110073-4.707022-0.349846-9.477653-0.095413-14.184676-0.795105-5.851974-0.890518-9.763891-3.657484-9.445849-10.336367 1.303972-28.464764-0.890518-56.929528 0.572476-85.394291-2.003665 31.804205 1.685623 63.735628-1.653819 95.539832-16.760816 7.855639-32.82194 4.293568-48.660434-2.862378-5.152281-30.595646-2.703357-61.159487-1.717427-85.521508-2.957791 19.559586-0.731497 45.670839-0.699693 71.654874 0 5.311302 2.162686 10.622605-4.897847 12.944312-6.933317 1.908252-13.930242 1.113147-19.941237-2.130882-21.054384-11.41771-43.253719-10.81343-65.866509-7.473988-4.261764 0.636084-8.39631 0.445259-11.894773-2.512532-2.130882-17.333292-1.59021-34.698388-0.763301-52.063484 0.031804-5.724757 2.226294-11.41771 0.445259-17.206076-0.445259-2.41712-1.558406-4.866043-0.890518-5.915582-1.081343 4.293568 2.79877 10.018325 0.826909 15.679474-1.59021 10.304563-2.162686 20.609125-1.081343 31.0091 0.572476 8.141877 0.127217 16.283753 0.254434 24.425629-0.826909 2.957791-0.858714 5.883778 0.858714 8.61894 0.858714 3.371246 0.731497 6.710687 0 10.050129-2.067273 21.181601-1.940057 42.363202 0 63.576607 0.286238 2.766966-0.127217 5.406715-1.717427 7.760226-27.733267 7.251359-55.625555 5.629344-82.913564-1.240364-27.733267-6.965121-52.286114-20.386496-70.732553-43.126503-4.579806-5.724757-10.558996-10.845234-9.032394-19.400565z" fill="#936BAC" p-id="4416"></path><path d="M660.509737 193.814827c30.722862 0 61.413921 0.349846 92.136783-0.063608 52.699568-0.731497 91.65972 39.818865 94.935553 92.931888 0.445259 7.473988-2.321707 12.848899-7.283163 18.351027-21.563251 24.012175-51.554617 29.895953-80.46464 38.006025-37.051899 10.368171-74.294624 20.068454-111.410131 30.213995-19.654999 5.374911-37.560767 13.834829-52.25431 28.591981-3.593875 3.625679-7.569401 12.976116-12.880703 8.173681-8.459919-7.633009-25.188931-7.79203-24.775476-23.884959 0.508867-20.132062-2.162686-40.041495-3.148616-60.078144-2.035469-41.122838-3.116812-82.277479-5.470323-123.400316-0.667888-11.576731 6.615275-8.714352 12.18101-8.746157 32.758332-0.190825 65.580271-0.095413 98.434016-0.095413zM377.515918 193.814827c32.82194 0 65.64388 0.190825 98.465819-0.127216 8.332702-0.063608 12.880703 1.717427 12.403641 11.322297-3.244029 61.63655-6.519862 123.2731-8.936982 184.941454-0.508867 12.976116-9.445849 17.524117-17.873964 21.722272-6.996925 3.498463-10.336367-5.533932-14.502717-9.60487-18.510048-18.096593-41.949747-25.856819-65.993726-32.503898-42.681244-11.79936-85.298879-23.884958-128.139144-35.111842-22.421965-5.883778-39.787061-18.732677-55.498338-34.952822-5.629344-5.82017-5.120477-12.467249-4.802435-19.241544 2.099078-45.639035 43.539957-85.775942 89.560642-86.348418 31.772401-0.413455 63.544802-0.095413 95.317204-0.095413z" fill="#1A547E" p-id="4417"></path><path d="M150.688325 251.507656c15.80669 52.731372 49.23291 87.461565 103.045625 101.964282 46.370531 12.499053 92.709259 24.998105 138.825357 38.41948 37.147312 10.81343 60.873249 35.080039 67.933782 73.912974 2.448924 13.484983 3.880113 27.160791 6.329037 44.6213-21.340622-16.856229-40.105103-31.645184-58.869584-46.43414-8.300898-6.551666-16.442774-13.357766-24.966301-19.59139-28.114918-20.545517-65.294034-24.870889-91.755133-3.212225-25.157126 20.577321-43.444545 14.566326-67.901978 0.667888-45.320993-25.825015-74.390036-61.763767-83.549647-113.254775-4.643414-26.111253 1.399385-51.586421 5.438519-77.157002 1.844644-2.226294 3.657484-2.258099 5.470323 0.063608zM576.960089 509.598782c2.480728-40.518558 6.233624-76.648135 39.309998-101.391806 10.81343-8.078268 22.676398-13.357766 35.557102-16.888033 44.23965-12.053794 88.574712-23.853154 132.718949-36.320403 58.646955-16.569991 86.507439-44.335062 109.533683-107.879864 24.489238 69.873839 4.866043 143.214337-59.569277 185.132279-2.226294 1.431189-4.707022 2.448924-6.837904 4.00733-26.524707 19.336957-49.868994 27.765071-81.482374 2.607945-27.319812-21.722272-61.572942-14.184676-89.783272 7.633009-25.856819 20.004845-51.204771 40.61397-79.446905 63.099543z" fill="#F5DA65" p-id="4418"></path><path d="M192.828897 445.513309c7.823835 3.880113 13.484983 6.488058 18.955306 9.477653 9.255024 5.056869 21.849489 8.205485 26.715533 16.092928 6.042799 9.795695-9.318632 15.361431-12.848899 24.552846-6.424449 16.665404-4.548001 31.549772 2.830574 47.26105 9.286828 19.81402 23.407895 37.974221 21.277014 61.986396-2.607945 29.355282-4.102742 58.83778-6.615275 88.193061-1.081343 12.753486-29.132652 39.723452-41.377271 40.804796-6.551666 0.572476-6.265428-4.198155-6.297233-8.459919-0.127217-13.707613-2.067273-27.447029-2.226294-40.995621-0.858714-78.747212-0.413455-157.526229-0.413455-238.91319z" fill="#1A547D" p-id="4419"></path><path d="M850.635277 487.971923c-4.961456 77.761282-2.035469 155.649781-3.0214 233.442867-0.063608 4.00733 1.876448 9.159611-2.448924 11.703948-5.311302 3.148616-8.364506-2.79877-12.530857-4.452589-29.259869-11.767556-36.574836-35.716123-35.779731-64.180886 0.349846-12.721682-0.890518-25.284343-2.925987-37.878809-4.643414-29.005435 3.848309-55.339317 17.683139-80.369227 13.135137-23.725937 13.6122-46.21151-6.837905-66.343572-5.82017-5.724757-3.498463-8.459919 2.41712-11.608535 11.672143-6.20182 23.376091-12.467249 34.602975-19.43237 8.110072-5.025064 8.873373-0.890518 8.84157 5.692953-0.031804 11.19508 0 22.294748 0 33.42622z" fill="#1A547E" p-id="4420"></path><path d="M847.359443 753.664254c6.392645-1.494798 12.530857-2.067273 8.968786 7.601206-17.714942 48.24698-51.586421 78.524583-101.487219 90.896418-12.435444 3.085008-25.02991 3.212225-37.719788 3.180421-133.450446-0.095413-266.900891 0.031804-400.351337-0.095413-57.088549-0.063608-109.120229-36.129577-128.838836-88.956362-1.622014-4.357176-2.099078-9.127807-3.148616-13.866634 7.378576-2.035469 6.647079 5.724757 10.43178 7.537597 5.883778 2.735162 7.633009 8.491723 9.98652 13.771221 18.064789 40.868404 50.950337 59.092214 94.108644 61.382116 21.086188 1.113147 42.331397-1.940057 63.353977 1.844644 2.671553 2.576141 5.247694 1.971861 7.79203-0.318042 15.170606-2.576141 30.341212-2.830574 45.480014 0.127217 2.512532 2.703357 5.088673 2.766966 7.696617 0.063608 14.407305-2.894183 28.81461-2.957791 43.221915-0.063608 2.512532 2.703357 5.088673 2.79877 7.696618 0.063608 14.439109-2.925987 28.846414-2.957791 43.285524-0.063608 2.576141 2.735162 5.184085 2.671553 7.823834 0 14.59813-3.562071 29.450694-1.399385 44.176041-1.81284 1.876448-0.031804 3.721092 0 5.597541-0.031804 14.057459-0.254434 28.114918-0.286238 42.172376 0.031804 2.79877 0 5.59754 0.031804 8.39631 0.031805 15.743082 0.127217 31.517968 0.031804 47.261049 0.031804 1.781036-0.063608 3.562071-0.031804 5.311303 0 27.987701-0.795105 56.134422 2.862378 83.931298-2.480728 37.847004-7.251359 64.308103-28.369351 77.157002-65.26223 1.717427-5.056869 3.816505-9.763891 7.696617-13.6122z" fill="#122D45" p-id="4421"></path><path d="M502.379228 298.228034c1.431189-29.069044 3.085008-58.169892 4.166351-87.238936 0.349846-9.127807 2.735162-16.02932 13.00792-15.870298 10.940647 0.159021 13.00792 7.314967 13.357766 17.206075 1.940057 54.480604 4.325372 108.961208 7.060534 163.441811 0.508867 10.177346 0.127217 17.01525-12.753487 13.198746-1.462993-0.445259-3.148616-0.190825-4.738826-0.127217-25.347952 0.667888-25.061714 0.699693-23.280679-25.538777 1.462993-21.658664 2.099078-43.349132 3.085008-65.0396 0.031804-0.031804 0.063608-0.031804 0.095413-0.031804z" fill="#F5DA65" p-id="4422"></path><path d="M364.253564 839.344784c-22.740007 0-45.511818 0.763301-68.220021-0.127217-42.458614-1.685623-84.090319-23.789546-100.851135-79.224276 0.38165-4.325372 2.099078-7.060534 7.060534-5.915582 28.305743 43.603566 69.364972 62.940522 120.442526 63.099544 13.771221 0.031804 27.510638-0.127217 41.281858-0.22263 6.20182 7.378576 5.692953 14.852564 0.286238 22.390161zM847.359443 753.664254c-10.081933 50.791316-49.741777 84.503774-101.42361 85.585117-22.23114 0.477063-44.494083-0.063608-66.757028-0.127217-5.533932-7.378576-5.851974-14.757151 0.063609-22.103922 26.333882-0.477063 52.954002 2.957791 78.874429-3.562071 35.23906-8.873373 62.908718-28.878218 82.913564-59.314843l6.329036-0.477064z" fill="#805A98" p-id="4423"></path><path d="M526.391403 406.871199c8.873373-0.190825 20.004845 2.766966 30.532037 8.110073 19.177936 9.763891 21.308818 18.351026 9.922912 35.843339-3.339442 5.120477-5.788365 2.353511-8.905177 0.636084-25.061714-13.834829-49.519148-12.785291-73.149673 3.307637-4.834239 3.275833-6.615275 2.766966-8.936981-2.766965-8.364506-19.750412-7.283163-23.948567 11.354101-35.080039 11.067863-6.647079 23.185266-9.922912 39.182781-10.050129z" fill="#F4DA65" p-id="4424"></path><path d="M520.221387 502.315619c-7.919247 0-15.870298 0.349846-23.789546-0.127216-4.707022-0.286238-11.544927 3.085008-13.294157-4.548002-1.367581-5.979191-2.576141-12.085598 1.59021-18.223809 15.456844-22.580986 54.512408-25.570581 72.799826-5.629345 7.346771 7.982856 2.607945 15.965711 1.144951 23.82135-1.462993 7.951051-8.491723 4.229959-13.103332 4.548001-8.39631 0.572476-16.888033 0.159021-25.347952 0.159021z" fill="#F5DA65" p-id="4425"></path><path d="M780.538808 690.055844c-14.470913-23.471504-29.387086-46.43414-55.848185-58.646955-11.226884-5.184085-22.485573-9.286828-35.048234-8.205485-14.375501 1.240364-28.496568-1.144951-42.522223-3.434854-22.199335-3.593875-35.875144-17.524117-45.320992-37.083704 5.025064-3.212225 6.551666-0.127217 7.855639 1.526602 19.750412 25.157126 47.261049 29.259869 76.01205 25.697798 33.42622-4.134547 56.802311 10.431779 75.980247 35.270864 4.516197 5.851974 7.823835 12.658074 12.562661 18.287418 3.911917 4.675218 2.576141-1.749231 4.00733-2.576141 4.675218 9.414045 1.526602 19.432369 2.321707 29.164457z" fill="#74578C" p-id="4426"></path><path d="M265.247073 645.021089v23.471503c10.558996-16.983446 19.81402-29.864149 31.836009-40.359536 16.124732-14.089263 33.966891-21.213405 56.166227-18.319222 32.853744 4.293568 63.004131-1.908252 85.616921-29.768737-3.339442 16.760816-12.880703 27.637854-27.669659 33.966892-15.20241 6.488058-31.263534 10.240954-47.674504 9.00059-40.518558-3.085008-68.283629 16.601795-89.878684 48.310588-3.562071 5.21589-7.18775 10.368171-10.781626 15.552256 0.095413-13.99385-2.766966-28.146722 2.385316-41.854334z" fill="#74568B" p-id="4427"></path><path d="M173.49194 522.320465c-23.535112-19.591391-26.747337-42.42681-25.029909-66.629811 0.60428-8.237289 3.212225-16.474578 5.97919-24.362021 1.653819-4.738827 2.671553-13.135137 9.60487-11.163276 5.343107 1.526602 9.668478 7.18775 9.573066 14.788956-0.349846 27.82868-0.127217 55.657359-0.127217 87.366152zM869.49517 520.634842c0-30.62745 0.063608-58.933193-0.031804-87.238936-0.031804-6.774296 4.070938-12.053794 9.22322-13.230549 6.297233-1.462993 7.346771 6.20182 9.223219 10.527192 13.580396 31.040904 6.265428 70.668944-18.414635 89.942293z" fill="#F4D965" p-id="4428"></path><path d="M150.688325 251.507656l-5.502128-0.095413c-0.095413-2.671553-2.19449-6.837904 1.971861-7.028729 3.148616-0.159021 4.102742 3.816505 3.530267 7.124142z" fill="#818359" p-id="4429"></path><path d="M546.141814 744.504643c8.300898-0.954126 17.047054 0.954126 24.743672-3.848309 1.081343-1.431189 2.226294-1.431189 3.466659-0.222629 23.980371-5.661149 48.24698-8.01466 72.863434-5.629344 4.738827 2.544336 9.859304 0.763301 14.788956 1.399385 3.212225 0.445259 6.042799 1.20856 4.134546 5.533931-6.360841 4.579806-13.739417 3.275833-20.79995 3.62568-8.491723-0.318042-17.01525-0.795105-25.316147 1.908252-15.933907 0.699693-29.705128 9.127807-44.812126 12.689878-4.102742 0.890518-8.205485 1.844644-12.18101 3.244029-10.20915 2.957791-20.545517 4.770631-31.23173 4.38898-10.81343-0.190825-21.595055-0.095413-32.376681-0.031804-5.247694 0.190825-10.463584-0.222629-15.647669-1.240364-5.470323-1.717427-11.226884-2.353511-16.824425-3.530267-15.743082-3.0214-29.291673-11.099668-42.967481-18.859893-2.925987-1.399385-6.042799-2.130882-9.22322-2.671554-14.311892-3.848309-29.069044-1.303972-43.508153-2.957791-2.735162-0.477063-4.929652-2.003665-7.028729-3.625679-2.035469-1.176756-2.19449-2.258099 0.127217-3.275833 0.98593-1.59021 2.035469-1.749231 3.212224-0.190826 8.841569-1.081343 17.651334-2.321707 26.524708-3.18042 18.128397-1.749231 35.493493 0.38165 51.936267 9.223219 4.866043 2.607945 11.099668 2.607945 16.729012 3.784701 2.830574 2.79877 7.028729 0.095413 9.98652 2.41712 15.647669 2.067273 31.23173 5.025064 47.133833 2.894182 8.587135-2.162686 17.61953 1.049539 26.270273-1.844644z" fill="#133450" p-id="4430"></path><path d="M714.22704 508.803677c0.127217 21.658664-16.156536 38.069634-37.878809 38.101438-20.990776 0.063608-38.514893-17.428705-38.260459-38.19685 0.254434-19.845824 17.683138-37.43355 37.560767-37.878809 20.672733-0.445259 38.451284 17.047054 38.578501 37.974221z" fill="#143450" p-id="4431"></path><path d="M403.913408 509.407957c0.031804 21.277013-16.919837 37.719788-38.578501 37.465354-21.149797-0.254434-36.702053-15.933907-36.892878-37.179116-0.190825-21.563251 16.506383-39.02376 37.401745-39.087368 20.609125-0.063608 38.069634 17.714942 38.069634 38.80113z" fill="#133450" p-id="4432"></path><path d="M578.963754 559.499581c3.180421 26.111253-2.258099 36.797466-21.531447 46.688573-26.524707 13.580396-63.767432 10.113737-83.167997-7.982855-10.399975-9.700283-18.446439-20.291083-10.304562-37.783396 7.283163 30.309408 29.768736 38.292263 54.448799 38.991955 26.842749 0.699693 51.491008-6.265428 60.555207-39.914277z" fill="#74578C" p-id="4433"></path><path d="M546.141814 744.504643c-8.555331 4.070938-17.460509 2.671553-26.365686 1.781036-0.636084-32.472094-7.092338-65.007796 2.353511-96.939218 5.120477 25.093518 7.060534 51.141162 2.766966 76.711743-2.512532 15.011585 0.445259 19.686803 14.947977 17.873964 2.035469-0.254434 4.166351 0.38165 6.297232 0.572475z" fill="#785991" p-id="4434"></path><path d="M679.242414 817.018232c-0.031804 7.378576-0.063608 14.725347-0.063609 22.103922-1.113147 0.031804-2.19449 0.063608-3.307637 0.063609-2.576141-2.41712-5.184085-4.770631-6.074603-8.396311-1.526602-5.343107-1.367581-10.81343-1.59021-16.283753 0.98593-24.171196-3.530267-48.565022 2.735161-72.545392 2.19449-2.79877 4.834239-3.212225 7.823835-1.367581l0.477063 76.425506z" fill="#74568B" p-id="4435"></path><path d="M472.642296 743.4233c-3.593875 0.349846-7.283163 1.049539-9.986521-2.417119 6.329037-0.826909 4.484393-4.61161 4.325372-9.191416-0.98593-27.701463-3.721092-55.561947 5.661149-82.849955v94.45849zM574.32034 740.433705c-1.144951 0.063608-2.289903 0.159021-3.466658 0.222629-5.470323-29.736932-4.229959-59.283039 3.466658-88.733733v88.511104z" fill="#75578D" p-id="4436"></path><path d="M364.158151 734.64534c2.162686 0.031804 4.325372 0.063608 6.519862 0.127216 7.219555 19.877628 4.579806 40.23232 3.116813 60.587012-2.766966 8.650744-1.844644 17.524117-1.781036 26.333882 0.031804 6.265428 0 12.594465-4.61161 17.683138-1.049539 2.353511-2.099078 2.321707-3.148616 0l-0.286238-22.390161c0.031804-2.003665 0.095413-4.039134 0.127217-6.042799-2.321707-22.326552-2.385315-44.6213 0.031804-66.947852 0.031804-3.148616 0.031804-6.233624 0.031804-9.350436z" fill="#73568C" p-id="4437"></path><path d="M678.320092 651.954406v69.555797c-7.919247-23.121657-6.456254-46.306923 0-69.555797zM419.211231 644.639438c7.537597 28.178526 7.219555 52.254309 0 76.425506v-76.425506z" fill="#75578D" p-id="4438"></path><path d="M624.952635 655.071218v61.41392h-6.233624v-58.297108c1.749231-1.717427 2.607945-5.184085 6.233624-3.116812z" fill="#74568B" p-id="4439"></path><path d="M367.497593 731.178681l-3.212225 0.190825c-0.031804-9.509457-0.095413-19.050719-0.127217-28.560176-2.385315-10.686213-2.353511-21.40423-0.031804-32.090443v-19.559586c5.21589 2.862378 2.607945 6.901513 3.371246 10.050128 3.466658 4.866043-0.572476 11.099668 2.894183 15.997516 0.38165 18.064789-5.056869 35.811535-2.894183 53.971736z" fill="#73568C" p-id="4440"></path><path d="M364.126347 743.963972v66.947852c-4.929652-22.326552-4.929652-44.653104 0-66.947852z" fill="#805A98" p-id="4441"></path><path d="M678.765351 740.62453c-2.067273 0.127217-4.134547 0.286238-6.20182 0.413455-2.289903 1.749231-4.38898 1.462993-6.392646-0.508867-5.152281-5.851974-13.866634 0.190825-18.98711-5.724757 9.318632 0.063608 18.637264 0.063608 27.924092 0.222629 3.752896 0.063608 3.562071 2.989595 3.657484 5.59754z" fill="#4D4A77" p-id="4442"></path><path d="M364.158151 670.718887c0 10.686213 0 21.40423 0.031805 32.090443-4.707022-10.686213-4.738827-21.372426-0.031805-32.090443z" fill="#795A91" p-id="4443"></path><path d="M624.952635 655.071218c-2.067273 1.049539-4.134547 2.099078-6.233624 3.116812 0.222629-3.7847-1.20856-9.255024 3.689288-9.986521 4.00733-0.540671 1.971861 4.357176 2.544336 6.869709z" fill="#83609E" p-id="4444"></path><path d="M370.391776 677.206945c-5.025064-4.61161-2.289903-10.5908-2.894183-15.997516 4.961456 4.61161 2.480728 10.558996 2.894183 15.997516z" fill="#795A91" p-id="4445"></path><path d="M367.40218 839.344784c1.622014-14.788955-3.371246-30.054974 3.085008-44.494084 4.802435 10.781626 9.573066 20.227475 24.870889 18.128397 10.304563-1.431189 15.552256-4.420785 15.234214-15.266018-0.222629-7.887443-0.954126-15.933907 1.081343-23.630525 0.922322-3.530267 0.667888-11.036059 8.491723-6.233624 3.244029 23.948567 6.329037 47.833525-1.81284 71.464049-16.983446 0-33.966891 0.031804-50.950337 0.031805zM520.09417 839.376588c-15.902103-0.031804-31.83601-0.095413-47.738112-0.127217-5.59754-7.283163-5.21589-14.82076-0.954126-22.517377 7.41038-5.661149 16.188341-4.548001 24.457434-4.134547 12.594465 0.60428 16.601795-4.99326 16.569991-17.01525-0.031804-10.145542-3.40305-21.340622 5.406715-30.086778 2.162686 0.636084 4.38898 1.876448 4.579805 3.943721 2.289903 23.407895 5.947386 46.879399-2.321707 69.937448z" fill="#805B98" p-id="4446"></path><path d="M570.949095 839.249371c-15.902103 0.031804-31.772401 0.095413-47.674504 0.127217-1.653819-12.944312-4.229959-25.952232 1.367581-38.64211 7.760226 9.509457 17.428705 13.930242 29.927757 12.212815 4.643414-0.636084 9.477653 0.318042 13.6122 3.180421 5.152281 7.219555 8.841569 14.59813 2.766966 23.121657z" fill="#7F5A97" p-id="4447"></path><path d="M469.239246 839.281175c-15.902103 0-31.83601 0.031804-47.738112 0.031804-2.703357-8.587135-2.544336-16.760816 3.816504-23.916762 13.294158-4.357176 26.556511-4.38898 39.85067-0.031804 5.279498 7.283163 6.20182 15.329627 4.070938 23.916762z" fill="#7F5A98" p-id="4448"></path><path d="M618.591794 839.058546c-14.788955 0.063608-29.609715 0.127217-44.39867 0.159021-1.431189-7.696618-4.802435-15.393235-0.22263-23.153462 14.916172-5.788365 29.864149-5.629344 44.812125-0.095412 5.438519 7.760226 5.59754 15.456844-0.190825 23.089853z" fill="#805A98" p-id="4449"></path><path d="M618.591794 839.058546c-0.031804-7.346771-0.031804-14.693543-0.063608-22.00851-7.728422-24.42563-7.982856-48.819455 0.254433-73.181477 8.173681-3.911917 16.760816-3.40305 25.379756-2.512532-17.206075 9.255024-14.757151 25.443364-14.566326 40.963816 0.127217 11.131472 0.286238 22.262944-0.127217 33.394416-0.095413 6.297233 0.413455 12.658074-1.399385 18.82809-0.731497 1.685623-1.749231 3.212225-2.989595 4.548001-2.130882 0-4.293568-0.031804-6.488058-0.031804z" fill="#74568B" p-id="4450"></path><path d="M424.554337 817.368078c-1.685623 7.219555-4.00733 14.343697-3.053203 21.944901-1.049539 1.844644-2.099078 1.844644-3.148617 0-0.031804-24.362021-0.063608-48.724043-0.127217-73.086063-6.551666-9.445849-6.074603-18.891698 0-28.337547 2.735162-0.286238 5.152281 0.127217 6.742492 2.703357 3.244029 25.602385 8.841569 51.236575-0.413455 76.775352z" fill="#73568B" p-id="4451"></path><path d="M469.239246 839.281175l-3.244029-22.135727c-7.601205-19.177936-7.919247-38.324067 0.190825-57.438395 5.470323 0.60428 11.385906-1.113147 16.188341 3.0214-5.406715 8.873373-5.374911 18.732677-5.502128 28.687393-0.095413 8.682548 1.908252 17.842159-4.261763 25.570581-0.095413 7.442184-0.159021 14.852564-0.254434 22.294748-1.049539 1.685623-2.067273 1.717427-3.116812 0z" fill="#73578C" p-id="4452"></path><path d="M574.352145 816.986427c-0.063608 7.41038-0.095413 14.852564-0.159021 22.262944-1.081343 0-2.162686 0.031804-3.275834 0.031804-1.081343-7.378576-2.162686-14.788955-3.212224-22.167531-8.650744-18.732677-4.229959-38.196851-3.40305-57.502003 2.79877-3.0214 6.424449-2.639749 10.018324-2.480728 7.633009 19.941237 7.473988 39.882474 0.031805 59.855514zM526.29599 801.179737c-6.360841 12.308227-1.431189 25.506973-3.053203 38.196851-1.049539 2.385315-2.130882 2.353511-3.180421 0 0-19.432369 0.127217-38.864739-0.095413-58.297109-0.063608-4.929652 2.130882-10.686213-3.339441-14.470913-7.124142 4.00733-14.025655 6.615275-18.891698-3.116812 11.703948 0.095413 23.439699 0.159021 35.143647 0.254434-2.989595 12.340032 1.049539 25.920427-6.583471 37.433549z" fill="#72568B" p-id="4453"></path><path d="M625.111656 839.09035c-0.031804-0.954126-0.063608-1.876448-0.063608-2.830574 15.42504-8.078268 31.645184-4.579806 47.706308-3.212225 2.480728 1.335777 3.085008 3.593875 3.116812 6.170016-16.919837-0.031804-33.839675-0.095413-50.759512-0.127217z" fill="#805A98" p-id="4454"></path><path d="M418.193496 737.889369v28.337547c-6.329037 12.530857-2.258099 25.888623-2.79877 38.80113-0.349846 8.587135-2.544336 13.071528-11.79936 12.181011-3.657484-0.349846-7.41038-0.063608-11.099668-0.031804-26.810945 0.095413-21.149797 0.318042-22.040314-22.326553l0.190825-60.078144c15.933907 0.286238 32.026835-2.544336 47.547287 3.116813zM625.175265 817.018232c-0.031804-16.315557 0.98593-32.694723-0.413455-48.883064-1.335777-15.552256 1.462993-26.143057 19.43237-26.779141 7.346771-0.286238 14.661739-0.540671 22.00851-0.826909 2.130882 0.159021 4.261764 0.318042 6.392645 0.508867 0 25.347952 0.031804 50.664099 0.031804 76.012051-15.838494 7.760226-31.645184 7.728422-47.451874-0.031804zM574.352145 816.986427c0-19.941237-0.031804-39.914278-0.031805-59.855514 14.693543-4.802435 27.892288-14.661739 44.462279-13.262354-0.095413 24.393826-0.159021 48.787651-0.254433 73.181477-14.693543-0.031804-29.450694-0.063608-44.176041-0.063609zM466.186042 759.707053l-0.190825 57.438395c-13.803025 0.063608-27.637854 0.159021-41.44088 0.22263-0.540671-23.344287 1.876448-46.847594-2.862378-70.03286-0.540671-2.671553 0.826909-5.152281 3.275833-6.742492 13.00792 7.919247 26.906358 13.930242 41.21825 19.114327z" fill="#936BAC" p-id="4455"></path><path d="M497.735814 763.491754c5.661149 4.961456 12.658074 1.81284 18.891698 3.116812 0.095413 13.198745-0.095413 26.39749 0.38165 39.596236 0.318042 8.269093-3.0214 11.385906-11.163276 11.067863-11.067863-0.445259-22.167531-0.222629-33.267199-0.286238-0.031804-14.089263 0.254434-28.178526-0.254433-42.235984-0.254434-7.569401 1.685623-12.149206 10.018325-11.990186 5.152281 0.222629 10.272758 0.477063 15.393235 0.731497z" fill="#926AAC" p-id="4456"></path><path d="M526.29599 801.179737c3.148616-12.308227-6.583471-26.906358 6.583471-37.465354 10.463584-1.367581 20.927167-2.766966 31.422555-4.134546 7.442184 18.796285 1.717427 38.355872 3.40305 57.502003-8.269093 0.031804-16.633599-0.667888-24.80728 0.254434-12.785291 1.494798-18.478243-3.148616-16.601796-16.156537z" fill="#936BAC" p-id="4457"></path><path d="M676.729882 489.625742c11.544927 0.159021 19.81402 8.905178 18.98711 20.640929-0.826909 12.02199-7.728422 18.382831-19.686803 18.128397-11.926577-0.222629-18.60546-6.837904-19.114327-18.82809-0.477063-11.41771 8.39631-20.100258 19.81402-19.941236z" fill="#EA5B5A" p-id="4458"></path><path d="M366.638879 528.236047c-12.976116 0.445259-19.495978-6.996925-20.57732-18.859894-0.98593-10.781626 8.968786-19.973041 20.068453-19.750411 12.02199 0.254434 18.351026 7.41038 19.81402 18.478243 1.431189 10.845234-7.696618 19.81402-19.305153 20.132062z" fill="#E85B5A" p-id="4459"></path><path d="M625.175265 817.018232h47.42007c0.063608 5.343107 0.095413 10.686213 0.159021 16.029319-15.488648 7.092338-31.867814 1.367581-47.706308 3.212225 0.063608-6.392645 0.095413-12.817095 0.127217-19.241544z" fill="#805A98" p-id="4460"></path></svg>