<?xml version="1.0" standalone="no"?><!DOCTYPE svg PUBLIC "-//W3C//DTD SVG 1.1//EN" "http://www.w3.org/Graphics/SVG/1.1/DTD/svg11.dtd"><svg t="1552714476885" class="icon" style="" viewBox="0 0 1024 1024" version="1.1" xmlns="http://www.w3.org/2000/svg" p-id="3676" xmlns:xlink="http://www.w3.org/1999/xlink" width="200" height="200"><defs><style type="text/css"></style></defs><path d="M159.466286 477.985402c0-85.871354 0.127217-171.742709-0.127217-257.582259-0.031804-13.039724 1.81284-24.330217 14.725347-30.754666 13.198745-6.551666 23.312483-0.190825 33.20359 7.728421 32.535702 25.952232 32.567506 25.920427 59.44206-6.329036 16.601795-19.941237 27.669659-20.895363 47.992546-4.357177 11.067863 9.032394 22.517377 17.61953 33.267199 27.001771 8.141877 7.124142 14.470913 8.39631 22.549181-0.699693 9.445849-10.654409 20.322887-20.100258 30.786471-29.832344 12.785291-11.831164 22.771811-12.562661 36.892878-2.130882 14.884368 10.972451 29.641519 22.23114 43.858 34.0305 7.823835 6.488058 13.580396 5.915582 20.322887-1.272169 10.527192-11.19508 21.436034-22.040314 32.535702-32.662918 12.340032-11.767556 23.376091-12.689878 36.765661-2.099078 14.089263 11.131472 27.60605 23.089853 40.932013 35.175451 7.378576 6.710687 13.325962 6.869708 20.227474-0.572476 8.682548-9.286828 17.937572-18.032984 27.065379-26.874553 14.248284-13.803025 26.079448-14.693543 41.949747-2.639749 13.484983 10.240954 26.747337 20.79995 39.755257 31.61338 7.537597 6.265428 13.898438 7.378576 22.294748 0.731497 11.990185-9.477653 24.870889-17.905768 37.8152-26.047645 20.004845-12.562661 40.264124-2.003665 41.377271 21.690469 0.731497 15.329627 0.159021 30.722862 0.159021 46.116097 0 155.299935 0.095413 310.59987-0.031804 465.899805-0.063608 64.371712-37.656179 112.745908-97.161848 125.944653-9.954716 2.226294-20.004845 2.19449-30.02317 2.226294-143.118924 0.063608-286.206044 0.127217-429.324968 0.031804-76.202876-0.063608-127.216821-51.395596-127.248625-127.852905-0.031804-82.182067 0-164.332329 0-246.482592z" fill="#123450" p-id="3677"></path><path d="M178.962264 740.211076c-0.318042-6.329037-0.890518-12.689878-0.890518-19.018915-0.063608-117.611951 0.222629-235.255707-0.413455-352.867659-0.063608-13.294158 4.420785-16.347362 16.283753-18.192005 74.962512-11.703948 148.175793-4.579806 220.943815 16.029319 40.550362 11.481318 81.895829 21.881293 124.895114 11.481318 25.665994-6.20182 51.363792-12.308227 77.284219-17.301487 33.617045-6.456254 66.279964-19.495978 101.200982-17.365096 32.185856 1.971861 64.276299 5.661149 96.430351 8.205485 7.346771 0.572476 9.732087 3.116812 9.700282 10.654408-0.445259 126.07187-0.60428 252.175544-0.858713 378.247415-12.976116 46.561357-69.683014 77.379632-111.823586 77.665869-140.28835 0.954126-280.5767 1.049539-420.86505-0.031804-47.070224-0.318042-100.310464-34.698388-111.887194-77.506848z" fill="#EA5B5A" p-id="3678"></path><path d="M178.962264 740.211076c15.965711 25.41156 34.730192 47.897133 63.00413 60.555207 17.555921 7.855639 35.652514 12.785291 55.05308 12.78529 133.48225-0.063608 266.9645-0.222629 400.44675 0.063609 51.777246 0.095413 91.755132-20.736342 119.711029-64.435321 1.971861-3.085008 4.198155-6.042799 6.329036-9.064198-3.212225 48.819455-41.854334 88.733733-90.387551 92.900084-14.21648 1.20856-28.496568 1.971861-42.744852 2.003665-133.545858 0.159021-267.123521 0.095413-400.669379 0.063608-34.41215 0-64.785166-9.98652-87.493369-37.306333-13.771221-16.601795-23.121657-35.302668-23.248874-57.565611z" fill="#B64544" p-id="3679"></path><path d="M501.202472 628.546511c22.262944 0 44.525888-0.477063 66.757027 0.095412 45.670839 1.176756 81.164332 37.560767 81.323353 82.690934 0.127217 45.257384-35.175451 82.468305-80.591856 83.295214-45.034755 0.826909-90.06951 0.826909-135.104264 0-45.639035-0.826909-80.273814-37.560767-80.146598-83.390627 0.095413-44.971146 34.571171-81.132528 79.446905-82.531912 22.771811-0.699693 45.575426-0.127217 68.347237-0.127217-0.031804 0.031804-0.031804 0-0.031804-0.031804z" fill="#123450" p-id="3680"></path><path d="M302.489797 532.49781c0.254434-20.895363 16.442774-36.988291 37.242725-37.051899 21.02258-0.063608 38.673914 17.61953 38.292263 38.260459-0.38165 19.81402-18.032984 37.274529-37.910613 37.465354-20.704538 0.254434-37.878809-17.428705-37.624375-38.673914zM700.169581 533.32472c-0.159021 20.831755-18.351026 38.578501-38.801131 37.878808-19.909433-0.699693-37.083703-18.478243-37.051899-38.355871 0.031804-20.640929 18.064789-37.847004 39.119173-37.369942 20.481908 0.477063 36.892878 17.365096 36.733857 37.847005z" fill="#163450" p-id="3681"></path><path d="M560.485511 543.406653c18.732677-9.064199 30.659254-23.980371 34.761997-44.048825 8.905178-43.603566 40.582166-59.601081 79.478709-67.488523 0.795105 0.699693 1.049539 1.399385 0.731496 2.067273-0.286238 0.667888-0.572476 0.98593-0.858713 0.98593-33.935087 12.371836-61.000466 30.786471-71.591266 68.728888-5.438519 19.527782-15.965711 38.228655-39.532628 42.903873-3.244029 1.144951-3.848309-0.286238-2.989595-3.148616zM439.406901 546.587073c-21.149797-2.830574-31.040904-18.22381-38.642109-35.525297-8.205485-18.700873-13.421375-38.64211-30.786471-52.349722-11.004255-8.682548-23.503308-13.962046-35.429885-20.609125-0.731497-2.894183-0.127217-4.452589 3.212225-3.244029 34.284933 8.746156 60.268969 25.538777 67.45672 63.703823 3.721092 19.877628 15.011585 35.684318 34.062303 44.748517 0.98593 0.699693 1.335777 1.431189 1.017735 2.162686-0.254434 0.731497-0.572476 1.113147-0.890518 1.113147zM439.629531 409.351927c45.670839 5.343107 91.182657 4.897848 136.567258-3.148616 0.763301 0.763301 1.017735 1.494798 0.699692 2.19449-0.286238 0.699693-0.572476 1.049539-0.858714 1.049539-26.01584 5.883778-51.999876 10.5908-79.001646 10.145541-21.595055-0.349846-42.681244-2.671553-63.672019-7.18775-0.38165-6.042799 3.053204-4.325372 6.265429-3.053204zM433.014256 425.381247c40.073299 7.887443 80.305619 8.587135 120.696959 3.021399 3.307637-1.144951 3.975526 0.318042 3.180421 3.244029-41.504488 9.477653-82.849955 10.908842-123.781967-3.085008-0.826909-0.667888-1.113147-1.367581-0.858714-2.099077 0.254434-0.699693 0.508867-1.081343 0.763301-1.081343z" fill="#B84644" p-id="3682"></path><path d="M442.682734 447.548778c39.214585 9.414045 78.397366 7.728422 117.580148-0.063609 0.922322 0.763301 1.20856 1.494798 0.858713 2.226295-0.349846 0.699693-0.699693 1.017735-1.017734 1.017734-40.168711 13.103333-80.305619 13.484983-120.47433 0-0.858714-2.894183-0.254434-4.325372 3.053203-3.18042z" fill="#B94644" p-id="3683"></path><path d="M556.891636 431.646675c-1.049539-1.081343-2.130882-2.162686-3.180421-3.212225 9.795695-5.438519 20.958971-5.661149 31.740597-7.919247-8.523527 6.170016-18.478243 8.809765-28.560176 11.131472z" fill="#CA4C4B" p-id="3684"></path><path d="M576.037767 409.44734c0.031804-1.081343 0.095413-2.162686 0.127217-3.244029 6.774296-4.166351 14.21648-5.470323 22.549182-3.689288-7.569401 2.321707-15.106998 4.643414-22.676399 6.933317z" fill="#D04E4D" p-id="3685"></path><path d="M439.629531 409.351927c-2.099078 1.017735-4.166351 2.035469-6.265429 3.053204-6.678883-2.321707-13.38957-4.643414-20.068453-6.933317 9.350436-1.303972 18.128397-0.190825 26.333882 3.880113zM337.792465 434.827096c-1.081343 1.081343-2.162686 2.162686-3.212225 3.244029-7.346771-2.512532-14.693543-4.99326-26.238469-8.936982 13.230549-0.922322 21.467839 1.558406 29.450694 5.692953z" fill="#C84B4A" p-id="3686"></path><path d="M442.682734 447.548778c-1.017735 1.049539-2.035469 2.099078-3.053203 3.18042-4.643414-2.289903-9.255024-4.579806-16.569991-8.141876 9.477653-1.176756 14.59813 1.749231 19.623194 4.961456z" fill="#CE4E4C" p-id="3687"></path><path d="M560.103861 450.729198l0.190825-3.244029c4.420785-3.943721 9.891108-4.866043 17.047054-6.106407-4.770631 7.219555-12.244619 6.074603-17.237879 9.350436z" fill="#CC4E4C" p-id="3688"></path><path d="M674.630804 434.890704c0.095413-1.017735 0.127217-2.035469 0.095413-3.085008 3.593875-4.166351 8.046464-3.625679 16.092928-1.653818-7.314967 2.162686-11.735752 3.466658-16.188341 4.738826zM560.485511 543.406653c1.017735 1.049539 2.035469 2.099078 3.0214 3.148616-4.61161 5.088673-10.368171 2.258099-16.061124 1.303973 4.357176-1.494798 8.714352-2.989595 13.039724-4.452589z" fill="#CE4E4C" p-id="3689"></path><path d="M433.014256 425.381247c0 1.049539 0.031804 2.099078 0.095413 3.148616-4.102742-0.159021-7.760226-1.303972-10.527192-4.802435 4.102742-2.576141 7.473988-1.781036 10.431779 1.653819z" fill="#CD4D4C" p-id="3690"></path><path d="M439.406901 546.587073l-0.095412-3.275833c4.229959 1.431189 8.459919 2.862378 14.439109 4.866044-6.170016 1.653819-10.495388 2.925987-14.343697-1.590211z" fill="#CA4C4B" p-id="3691"></path><path d="M448.121254 672.754356c-12.117402 2.576141-18.287418 0.318042-18.732677-16.124732-0.508867-18.891698 9.668478-16.02932 21.277013-16.888033 13.834829-1.049539 18.128397 2.703357 18.764481 17.61953 0.795105 18.351026-9.159611 16.315557-21.308817 15.393235z" fill="#F7F8F9" p-id="3692"></path><path d="M555.619468 640.600304c14.725347-3.434854 19.146132 1.431189 19.718607 16.6336 0.636084 17.937572-9.064199 15.106998-20.291083 16.18834-14.470913 1.399385-17.237879-3.943721-17.237879-17.428704 0.031804-14.439109 4.61161-19.336957 17.810355-15.393236z" fill="#F6F7F9" p-id="3693"></path><path d="M448.280275 778.630556c-13.453179 3.371246-18.00118-0.795105-18.796286-16.251949-1.017735-20.163866 11.163276-14.534522 21.62686-15.870299 14.280088-1.81284 17.428705 3.339442 18.192005 17.524117 1.017735 18.987111-9.891108 15.456844-21.022579 14.598131z" fill="#FEFEFE" p-id="3694"></path><path d="M556.287356 778.725968c-13.039724 2.512532-18.351026-0.508867-18.669069-15.615865-0.349846-16.601795 6.965121-16.79262 19.305153-16.760816 11.862969 0.063608 18.637264 0.254434 18.414635 16.124732-0.222629 15.997515-6.042799 19.146132-19.050719 16.251949z" fill="#FAFBFC" p-id="3695"></path><path d="M502.69727 672.690748c-16.442774 4.675218-15.106998-5.883778-16.092928-17.365097-1.272168-14.725347 5.533932-15.329627 17.301488-15.80669 13.962046-0.572476 17.555921 3.466658 17.810355 17.524118 0.286238 15.584061-6.297233 17.937572-19.018915 15.647669z" fill="#F4F6F7" p-id="3696"></path><path d="M504.51011 778.503339c-15.138802 3.816505-17.937572-2.512532-18.032985-16.092928-0.063608-13.421375 3.689288-16.79262 16.6336-16.124732 11.608535 0.636084 19.623195-0.095413 18.478243 16.220145-0.922322 13.38957-2.830574 20.672733-17.078858 15.997515z" fill="#FCFDFD" p-id="3697"></path><path d="M376.052924 673.136006c4.452589-10.018325 11.131472-14.979781 17.937572-19.654998 5.056869-3.498463 11.322297-9.922912 16.347362-7.124142 6.042799 3.371246 1.876448 12.212815 2.57614 18.60546 0.636084 5.915582-2.321707 8.428114-8.332702 8.237289-8.873373-0.254434-17.714942-0.063608-28.528372-0.063609z" fill="#ECEEF1" p-id="3698"></path><path d="M411.673634 774.591422c-15.106998-4.643414-26.302078-13.707613-37.21092-27.955897h14.725347c25.316147-0.095413 25.316147-0.095413 22.485573 27.955897z" fill="#F5F6F8" p-id="3699"></path><path d="M626.224804 671.704817c-34.857409 3.880113-34.857409 3.880113-33.458024-25.443364 14.629934 4.229959 24.902693 12.880703 33.458024 25.443364z" fill="#F3F5F6" p-id="3700"></path><path d="M626.511041 748.193931c-8.905178 11.735752-18.891698 20.004845-31.99503 24.934497-4.38898-30.182191-7.41038-27.924092 31.99503-24.934497z" fill="#F9FAFB" p-id="3701"></path><path d="M320.968041 533.292915c0.60428-11.258689 6.424449-18.478243 18.446439-18.98711 12.276423-0.540671 19.241544 7.092338 19.718607 18.287418 0.477063 11.481318-6.901513 19.336957-18.510048 19.718607-11.544927 0.318042-18.637264-6.360841-19.654998-19.018915zM681.468708 535.423797c-1.940057 10.940647-9.064199 17.651334-20.354691 16.824425-11.226884-0.795105-18.00118-8.300898-18.00118-20.004845 0-11.163276 9.827499-19.273348 21.245209-17.937572 11.958381 1.399385 16.983446 8.968786 17.110662 21.117992z" fill="#E95B5A" p-id="3702"></path></svg>