<?xml version="1.0" standalone="no"?><!DOCTYPE svg PUBLIC "-//W3C//DTD SVG 1.1//EN" "http://www.w3.org/Graphics/SVG/1.1/DTD/svg11.dtd"><svg t="1552714456644" class="icon" style="" viewBox="0 0 1024 1024" version="1.1" xmlns="http://www.w3.org/2000/svg" p-id="3386" xmlns:xlink="http://www.w3.org/1999/xlink" width="200" height="200"><defs><style type="text/css"></style></defs><path d="M887.559959 513.256266c0 73.117868 0.095413 146.235736-0.031804 219.353604-0.095413 74.071994-51.904463 125.976457-125.785632 126.040066-143.595987 0.095413-287.16017 0.095413-430.756158 0.031805-75.02612-0.031804-127.407647-52.731372-127.375842-128.10734 0.095413-145.695065 0.254434-291.39013 0.477063-437.085194 0.127217-75.821226 52.127093-128.107339 127.503059-128.139143 142.514644-0.095413 285.061093-0.063608 427.575737 0 77.125198 0.031804 128.298164 51.363792 128.361773 128.552598 0.063608 73.117868 0.031804 146.235736 0.031804 219.353604z" fill="#12334F" p-id="3387"></path><path d="M356.747772 725.199491c-2.957791-46.338727-21.658664-85.171662-53.939933-118.534274-21.181601-21.881293-47.102028-40.073299-59.632885-69.333167-12.562661-29.355282-20.831755-59.760102-20.672733-92.073175 0.222629-51.904463 0-103.808926 0.063608-155.713389C222.629438 228.958474 266.900891 184.178153 327.583315 184.082741c145.631456-0.190825 291.294717-0.190825 436.926173 0 59.696493 0.063608 103.681709 42.967481 104.476815 102.377737 0.731497 53.494673 2.226294 107.084759-0.38165 160.452216-2.448924 50.250644-13.325962 98.720253-54.798646 133.959313-9.636674 8.205485-17.810355 18.128397-26.779141 27.097183-32.376681 32.440289-50.091623 71.464049-52.985806 117.230301-2.321707 25.316147-1.335777 50.695903-0.636084 76.01205 0.38165 13.803025-5.406715 17.873963-17.428705 17.905768-5.82017 0-11.640339 0.127217-17.460509 0.127217h-306.179085c-5.82017 0-11.640339-0.127217-17.460508-0.127217-12.02199-0.031804-17.778551-4.134547-17.428705-17.905768 0.636084-25.284343 1.622014-50.695903-0.699692-76.01205z" fill="#EA5B5A" p-id="3388"></path><path d="M753.409821 724.913253c0.508867-42.204181 20.227475-75.598596 47.738112-105.717179 22.326552-24.42563 51.077554-43.380936 67.488524-75.280554v187.294965c2.79877 3.085008 2.607945 6.678883 1.749231 10.399976-21.595055 40.995621-54.671429 66.470789-100.851135 73.722148-16.601795 2.607945-17.61953 1.653819-17.333292-14.502718 0.508867-25.316147-1.653819-50.664099 1.20856-75.916638zM222.12057 728.061869v-183.955524c20.4183 38.069634 58.201696 59.887319 82.945368 93.154518 19.368761 26.047644 32.122247 54.512408 32.281268 87.65239 2.862378 27.447029 0.349846 54.957667 1.303973 82.4365 0.254434 7.283163-3.466658 9.22322-9.795696 8.873373-11.767556-0.636084-23.026245-3.593875-33.903282-7.951051-33.871479-13.6122-59.251235-36.447619-74.676275-69.842035-0.826909-3.721092-0.954126-7.314967 1.844644-10.368171z" fill="#8D2E2C" p-id="3389"></path><path d="M356.747772 725.199491c5.406715 23.471504 1.971861 47.292853 2.035469 70.923378 0.031804 13.230549 2.512532 18.319222 17.301487 18.223809 112.841321-0.667888 225.682641-0.636084 338.523962 0 14.788955 0.095413 17.269684-4.961456 17.301488-18.223809 0.063608-23.630525-3.371246-47.42007 2.067273-70.923378 0.349846 28.623785 0.731497 57.215765 1.081343 85.83955 9.954716 22.899028 3.7847 33.489828-20.768146 33.553437-112.618691 0.318042-225.237382 0.318042-337.824269 0-24.552847-0.063608-30.754667-10.654409-20.768146-33.553437 0.318042-28.591981 0.699693-57.215765 1.049539-85.83955z" fill="#B64544" p-id="3390"></path><path d="M355.666429 811.039041c2.957791 28.878218 2.957791 28.878218 33.521632 28.878218h321.858558c22.135727 0 22.103923 0 23.089853-22.61279 0.095413-2.099078 0.60428-4.166351 0.922322-6.265428 5.152281 0 10.336367 0 15.488648-0.031804 8.841569 21.785881 17.460509 26.238469 41.313663 19.018915 32.853744-9.98652 56.102618-30.850079 66.947852-63.958257 2.79877-8.491723 6.774296-16.538187 9.032395-25.188931 0.254434-3.212225 0.508867-6.456254 0.795105-9.668479 9.350436-14.407305 7.728422-32.154052 15.234214-51.872658 1.367581 61.795571-9.732087 113.445601-60.237165 149.257135-27.128987 19.241544-57.915458 23.662329-89.84688 23.662329-130.778892 0.095413-261.557785 1.113147-392.304873-0.38165-72.990651-0.826909-133.673075-61.763767-131.733019-132.623537 0.318042-11.576731 0.031804-23.185266 1.081343-34.921017 2.957791 14.852564 3.148616 30.341212 11.290493 43.698978 0.254434 3.212225 0.477063 6.424449 0.731497 9.668478 3.148616 10.558996 6.424449 21.149797 10.177346 31.422555 12.40364 33.80787 37.115508 54.607821 72.004721 62.145418 22.517377 4.866043 26.143057 1.844644 35.143647-20.227475h15.488648z" fill="#102D46" p-id="3391"></path><path d="M340.177781 811.039041c-0.38165 26.174861-0.38165 26.174861-26.747337 25.538777-38.228655-0.922322-80.210206-36.765661-87.366152-75.503184-1.399385-7.633009-5.120477-15.170606-3.212225-23.344286 20.259279 34.221325 47.102028 60.078144 86.730068 70.955182 27.60605 7.569401 27.415225 8.173681 27.478833-20.481909 0.031804-21.086188 0.190825-42.172376 0.286238-63.290368 5.82017 18.478243 1.335777 37.43355 2.512532 56.166226 0.636084 9.922912 0.254434 19.941237 0.318043 29.959562zM867.841352 740.878964c-1.940057 56.03901-50.695903 99.737988-106.416871 95.953287-8.428114-0.572476-11.258689-3.689288-10.781626-11.544926 0.286238-4.738827-0.031804-9.509457-0.095413-14.280088 0.063608-23.662329 0.063608-47.324658 0.254434-71.018791 0.031804-5.120477-1.399385-10.622605 2.576141-15.106997 0.095413 25.825015 0.318042 51.65003 0.222629 77.475044-0.031804 7.569401 0.667888 10.495388 10.495388 9.350436 40.868404-4.738827 71.368637-25.188931 94.553902-58.106283 3.0214-4.261764 6.138212-8.459919 9.191416-12.721682z" fill="#6B2322" p-id="3392"></path><path d="M545.696556 773.859925c-44.462279 0-88.956362 0.159021-133.418642-0.063609-22.326552-0.127217-26.938162-5.056869-27.00177-27.065378-0.063608-21.181601-0.127217-42.363202 0.031804-63.544803 0.127217-18.923502 5.947386-24.839084 24.42563-24.870888 90.546573-0.063608 181.093145-0.063608 271.639718 0 19.782216 0 24.680063 4.770631 24.775476 23.916762 0.127217 22.771811 0.127217 45.543622 0 68.315433-0.127217 18.732677-4.579806 23.185266-23.789546 23.280679-45.60723 0.127217-91.150853 0.031804-136.66267 0.031804z" fill="#123450" p-id="3393"></path><path d="M545.283101 197.090661c45.511818 0 91.023636-0.063608 136.535454 0.031804 17.842159 0.031804 29.577911 9.350436 30.086778 23.59872 0.540671 14.439109-13.6122 27.2244-31.0091 27.256204-90.514768 0.127217-180.997733 0.127217-271.512502-0.031804-18.192005-0.031804-28.019505-10.018325-27.828679-27.128987 0.159021-15.393235 10.113737-23.694133 28.751001-23.694133 45.002951-0.063608 89.974097-0.031804 134.977048-0.031804z" fill="#EC6F70" p-id="3394"></path><path d="M604.184489 582.589434c-0.031804 13.357766-10.336367 22.358356-22.103922 19.81402-6.106407-1.303972-11.926577-4.166351-17.683139-6.710688-12.848899-5.59754-25.316147-6.265428-37.878808 1.081343-4.484393 2.607945-9.700283 4.070938-14.661739 5.788366-9.064199 3.148616-15.361431-1.749231-20.450104-8.110073-5.088673-6.329037-5.915582-13.516787-0.667888-20.386495 14.025655-18.446439 27.796875-37.051899 42.363201-55.05308 7.919247-9.795695 23.185266-10.240954 30.563842-0.254433 13.771221 18.637264 26.143057 38.292263 38.928347 57.62922 1.303972 2.099078 1.303972 5.025064 1.59021 6.20182z" fill="#B74544" p-id="3395"></path><path d="M705.926142 496.813492c-21.40423-0.031804-38.514893-17.237879-38.006025-38.165046 0.508867-20.386496 17.333292-36.511228 38.069634-36.511228 21.340622 0.031804 38.578501 17.301488 38.037829 38.165046-0.540671 20.4183-17.365096 36.543032-38.101438 36.511228z" fill="#153450" p-id="3396"></path><path d="M383.940367 422.677889c22.167531 0.063608 36.065969 14.311892 36.034165 36.892878-0.031804 22.517377-13.99385 36.702053-36.22499 36.733858-22.803615 0.031804-37.592571-14.916172-37.306333-37.687984 0.254434-21.62686 15.266019-36.00236 37.497158-35.938752z" fill="#143450" p-id="3397"></path><path d="M499.326024 699.374476c-13.866634 3.848309-15.679473-2.894183-16.569991-15.42504-1.081343-15.584061 5.565736-16.347362 17.969376-16.601795 12.753486-0.254434 16.729012 2.544336 17.110663 16.220145 0.445259 15.584061-5.788365 18.192005-18.510048 15.80669z" fill="#FCFCFD" p-id="3398"></path><path d="M414.027145 668.206355c13.930242-3.339442 17.3969 2.226294 17.555922 16.251949 0.159021 14.534522-5.661149 15.20241-17.428705 15.774885-13.962046 0.667888-17.428705-3.307637-17.269683-17.17427 0.190825-13.6122 4.293568-18.032984 17.142466-14.852564zM412.595956 763.269124c-10.654409 2.41712-15.838494-0.890518-15.711277-15.043389 0.127217-13.38957 2.735162-17.778551 17.047054-17.428704 13.38957 0.318042 18.764481 2.766966 17.333292 17.237879-1.431189 15.106998-0.349846 15.234214-18.669069 15.234214z" fill="#FBFCFD" p-id="3399"></path><path d="M498.499115 763.269124c-10.845234 2.512532-15.679473-1.081343-15.774886-15.138801-0.095413-13.99385 3.498463-17.428705 17.365096-17.269684 13.548591 0.127217 18.859894 2.830574 17.428705 17.333292-1.494798 14.947977-0.38165 15.075193-19.018915 15.075193z" fill="#FCFCFD" p-id="3400"></path><path d="M675.044259 763.269124c-12.435444 3.0214-15.647669-2.79877-15.838494-16.665403-0.222629-14.59813 5.82017-15.075193 17.428704-15.679473 14.025655-0.731497 18.192005 3.307637 16.951642 17.206075-1.367581 15.043389-0.318042 15.138802-18.541852 15.138801zM675.171476 699.756126c-12.149206 2.862378-15.902103-2.41712-15.997516-16.601795-0.095413-14.343697 5.406715-15.393235 17.333292-15.838494 13.707613-0.508867 18.446439 2.894183 17.078859 17.110662-1.431189 15.20241-0.318042 15.329627-18.414635 15.329627z" fill="#FBFCFC" p-id="3401"></path><path d="M542.643352 762.85567c-16.41097 4.897848-13.962046-6.010995-15.170606-16.506383-1.717427-15.170606 6.042799-14.725347 17.269683-15.361431 13.580396-0.763301 15.774886 3.816505 16.442775 16.538187 0.922322 16.092928-6.360841 17.492313-18.541852 15.329627zM604.057272 748.225735c4.484393 15.42504-5.025064 14.343697-16.156536 15.488648-15.711277 1.622014-15.615865-5.883778-16.506382-17.873963-1.176756-15.902103 7.569401-13.898438 17.905767-14.757151 14.057459-1.176756 17.683138 4.548001 14.757151 17.142466zM631.599714 699.724322c-11.831164 3.085008-14.852564-2.41712-15.425039-15.488648-0.636084-14.693543 4.484393-16.665404 17.555921-16.951641 13.834829-0.318042 16.79262 4.198155 15.870298 16.856229-1.113147 15.488648-0.254434 15.552256-18.00118 15.58406zM589.013883 668.365376c16.569991-4.897848 14.788955 5.406715 15.838495 16.220144 1.431189 14.757151-5.59754 14.629934-17.078859 15.679474-16.061124 1.462993-15.488648-6.360841-16.315557-18.128397-1.081343-15.615865 6.710687-16.220145 17.555921-13.771221zM473.373793 747.589651c4.707022 16.124732-4.866043 14.979781-15.965712 16.124732-15.711277 1.622014-15.647669-5.851974-16.538186-17.873963-1.176756-15.933907 7.601205-13.930242 17.937572-14.725347 13.834829-1.049539 18.287418 4.00733 14.566326 16.474578zM542.452527 699.310867c-16.983446 5.056869-13.644004-6.742492-14.916173-16.729012-1.971861-15.393235 6.488058-14.375501 17.428705-15.170606 14.025655-1.049539 15.42504 4.484393 16.220145 16.760817 1.081343 16.379166-6.742492 17.237879-18.732677 15.138801zM649.378265 748.925428c3.721092 13.103333-4.00733 14.089263-16.061124 14.82076-14.375501 0.826909-16.729012-3.975526-17.142466-17.333292-0.477063-14.916172 5.883778-15.80669 17.428704-15.170606 15.743082 0.826909 15.774886 0.222629 15.774886 17.683138zM473.596422 684.712737c4.579806 15.711277-5.152281 14.661739-16.283753 15.393236-13.357766 0.858714-15.838494-3.498463-16.569991-16.379166-0.890518-15.902103 6.265428-15.743082 18.192005-16.379166 14.280088-0.731497 17.3969 5.056869 14.661739 17.365096z" fill="#FFFFFF" p-id="3402"></path><path d="M705.957946 439.756748c11.099668 1.622014 18.669069 6.678883 19.114328 18.955306 0.413455 11.544927-7.982856 20.481908-19.082523 20.4183-11.322297-0.063608-19.464174-8.777961-19.114328-20.386496 0.38165-12.340032 7.982856-17.365096 19.082523-18.98711z" fill="#FBFCFC" p-id="3403"></path><path d="M403.086499 459.189117c-1.176756 11.449514-6.583471 19.114327-18.573656 19.336957-12.212815 0.222629-19.686803-5.915582-19.750412-18.859894-0.063608-12.880703 7.092338-19.241544 19.43237-19.20974 12.02199 0.031804 17.460509 7.569401 18.891698 18.732677z" fill="#FDFDFE" p-id="3404"></path></svg>