<?xml version="1.0" standalone="no"?><!DOCTYPE svg PUBLIC "-//W3C//DTD SVG 1.1//EN" "http://www.w3.org/Graphics/SVG/1.1/DTD/svg11.dtd"><svg t="1552714470438" class="icon" style="" viewBox="0 0 1024 1024" version="1.1" xmlns="http://www.w3.org/2000/svg" p-id="3534" xmlns:xlink="http://www.w3.org/1999/xlink" width="200" height="200"><defs><style type="text/css"></style></defs><path d="M179.439327 500.629997c0-75.789421-0.254434-151.578843 0.127216-227.368265 0.159021-33.553437 5.056869-66.470789 18.44644-97.607106 9.827499-22.899028 22.99444-24.711868 38.292263-5.533932 0.98593 1.240364 2.162686 2.353511 2.989595 3.721093 9.255024 15.488648 19.432369 26.524707 40.200516 16.474578 7.473988-3.625679 17.746747-1.876448 26.715532-1.876448 143.08712-0.095413 286.206044-0.063608 429.293164 0 8.459919 0 17.714942-1.367581 25.252539 1.462993 16.633599 6.265428 26.842749 0.540671 34.793801-13.6122 2.035469-3.657484 4.99326-6.837904 7.728422-10.050129 12.212815-14.439109 24.075783-13.707613 33.839674 2.894183 18.478243 31.454359 24.266609 66.438985 25.347952 102.091499 1.20856 40.772991 0.826909 81.609591 0.826909 122.414387 0.095413 110.774047 0.063608 221.548095 0.031805 332.290337-0.031804 83.931298-50.44147 134.213747-134.468181 134.213747-139.906699 0-279.845203 0.031804-419.751902 0-78.333758-0.031804-129.633941-50.918533-129.824766-128.966053-0.159021-76.83896-0.031804-153.709725-0.031805-230.548684h0.190826z" fill="#123450" p-id="3535"></path><path d="M198.649067 745.745007c-1.399385-85.903159 6.615275-170.597758 31.676988-253.161474 3.689288-12.181011 8.428114-23.853154 14.248284-35.143647 18.22381-35.302668 52.826785-49.582756 90.864615-36.574836 47.928937 16.379166 95.635246 33.458024 143.436966 50.155231 11.036059 3.848309 21.690468 8.300898 30.786471 15.902103 5.82017 4.866043 12.817095 6.901513 18.987111 2.19449 28.083113-21.499643 62.654285-27.192596 94.553902-39.182781 26.651924-10.018325 53.62189-19.336957 80.719073-28.083113 35.302668-11.354101 70.350902 3.562071 86.634656 37.020095 19.877628 40.8366 28.719197 85.076249 36.543032 129.252291 8.936982 50.505078 15.711277 101.423611 17.047054 152.85101 0.063608 2.639749-0.38165 5.279498-0.60428 7.887443-13.771221 41.027425-46.688573 59.855514-84.758208 71.877505-14.566326 4.61161-30.054974 5.947386-45.543622 5.947386-127.153213-0.095413-254.274622 0.063608-381.427834-0.127217-43.571761-0.063608-82.372892-12.244619-112.777713-45.702643-9.477653-10.399975-17.237879-21.277013-20.386495-35.111843z" fill="#FBDBCB" p-id="3536"></path><path d="M197.853962 529.69904c0-69.396776-0.095413-138.761748 0.031804-208.158524 0.063608-36.511228-2.035469-73.181477 7.028729-109.088424 2.957791-11.672143 5.724757-23.439699 13.071529-35.01643 13.357766 16.092928 25.63419 31.708793 38.769326 46.624965 58.169892 65.930118 126.707954 118.120819 205.486971 157.526229 40.995621 20.513712 79.287884 18.796285 119.392987-2.289903 89.147188-46.911203 163.823462-110.615026 226.096096-189.330434 2.957791-3.721092 5.883778-7.505792 8.968785-11.131472 0.60428-0.731497 1.81284-0.954126 3.62568-1.844644 16.41097 26.238469 22.930832 55.784576 23.280678 85.648725 1.144951 100.66031 0.445259 201.352424-1.494797 302.489797-4.61161-18.319222-9.191415-36.670249-13.83483-54.957667-4.834239-18.987111-11.099668-37.528962-19.146131-55.371121-19.623195-43.508153-65.0396-65.103208-110.456006-50.409666-51.745442 16.729012-103.618101 33.712458-153.741528 54.607821-18.700873 7.79203-30.913688 6.933317-49.073889-0.286238-52.954002-21.117992-107.116564-39.309998-161.374538-56.961332-42.013355-13.675808-86.221201 7.092338-106.575892 47.515483-12.817095 25.506973-19.654999 53.144827-30.054974 80.432835z" fill="#EA5B5A" p-id="3537"></path><path d="M767.308259 209.367084c-48.087959 53.558282-99.610771 99.45175-160.070566 134.595397-16.474578 9.573066-33.521632 18.160201-50.536882 26.683728-23.757741 11.894773-48.087959 11.449514-72.004721 0.763301-58.933193-26.365686-112.173432-61.541137-159.911545-105.04929-16.41097-14.947977-33.362611-29.291673-47.324657-46.847595-6.774296-8.491723-3.880113-10.304563 4.77063-11.513122 9.954716-1.399385 19.782216-2.79877 29.927758-2.766966 133.545858 0.159021 267.091717 0.159021 400.669379 0.063609 17.365096-0.031804 34.698388 0.858714 54.480604 4.070938z" fill="#7D4228" p-id="3538"></path><path d="M198.649067 745.745007c20.481908 33.362611 46.465944 60.109948 85.83955 70.223686 14.248284 3.657484 28.846414 5.947386 43.63537 5.947386 124.386247 0.031804 248.804299-0.826909 373.158741 0.381651 61.350312 0.60428 110.233376-19.114327 142.260211-73.435911-4.548001 52.858589-47.674504 92.391217-102.536758 92.613846-97.416281 0.413455-194.832562 0.159021-292.248843 0.127217-51.363792 0-102.727583 0.699693-154.059571-0.38165-51.618225-1.113147-95.762462-45.925273-96.0487-95.476225z" fill="#EFC0AC" p-id="3539"></path><path d="M680.514582 503.810417c22.135727 0 36.543032 14.248284 36.638445 36.22499 0.095413 22.00851-14.375501 36.988291-35.906948 37.21092-22.517377 0.222629-37.656179-14.82076-37.528962-37.274528 0.095413-21.754076 14.725347-36.161381 36.797465-36.161382z" fill="#143551" p-id="3540"></path><path d="M356.81138 577.468957c-20.386496-0.254434-37.020095-17.428705-36.543032-37.783396 0.477063-20.386496 17.428705-36.60664 38.133242-36.44762 20.609125 0.159021 37.369941 16.824425 37.369942 37.210921-0.031804 20.895363-17.237879 37.274529-38.960152 37.020095z" fill="#143550" p-id="3541"></path><path d="M522.193248 725.167686c12.658074-1.144951 23.185266 6.678883 35.429885 7.664814 6.933317 0.572476 5.502128 8.205485 5.851973 12.848899 0.413455 5.692953-5.120477 3.593875-8.300897 4.070938-2.035469 0.318042-4.452589 0.349846-6.265429-0.445259-18.382831-8.078268-36.574836-6.233624-55.021275 0-3.657484 1.240364-9.255024 2.226294-11.544926-2.003665-1.462993-2.703357-0.286238-7.155946 0.508867-10.654408 0.38165-1.622014 2.671553-3.911917 4.166351-3.975526 12.276423-0.445259 22.771811-8.746156 35.175451-7.505793z" fill="#143450" p-id="3542"></path><path d="M680.641799 559.754014c-11.79936-1.081343-19.146132-6.8061-19.050719-19.686803 0.095413-12.053794 6.647079-18.446439 18.446439-18.637264 12.62627-0.190825 19.432369 6.551666 19.464174 19.273348 0 12.053794-6.901513 17.810355-18.859894 19.050719z" fill="#FDFDFE" p-id="3543"></path><path d="M355.952666 559.881231c-9.954716-1.526602-17.01525-7.378576-17.3969-19.273348-0.349846-11.163276 8.936982-20.450104 19.941237-19.591391 11.513122 0.922322 18.319222 7.346771 18.764481 19.20974 0.413455 11.226884-8.682548 19.941237-21.308818 19.654999z" fill="#FBFBFC" p-id="3544"></path></svg>